<svg xmlns="http://www.w3.org/2000/svg" xmlns:xlink="http://www.w3.org/1999/xlink" xmlns:lucid="lucid" width="1602" height="1062"><g transform="translate(-1359 821)" lucid:page-tab-id="0_0"><path d="M1000-1000h2000V500H1000z" fill="#fff"/><path d="M2260-714a6 6 0 0 1 6-6h368a6 6 0 0 1 6 6v379a6 6 0 0 1-6 6h-368a6 6 0 0 1-6-6z" stroke="#3a414a" stroke-width="2" fill="#e3fae3"/><path d="M2260-677.33h380" stroke="#3a414a" stroke-width="2" fill="none"/><use xlink:href="#a" transform="matrix(1,0,0,1,2268,-712) translate(101.87654320987653 17.944444444444443)"/><use xlink:href="#b" transform="matrix(1,0,0,1,2268,-712) translate(157.37037037037035 17.944444444444443)"/><use xlink:href="#c" transform="matrix(1,0,0,1,2268,-712) translate(170.88888888888889 17.944444444444443)"/><use xlink:href="#d" transform="matrix(1,0,0,1,2272,-669.3333333333334) translate(0 16)"/><use xlink:href="#e" transform="matrix(1,0,0,1,2272,-669.3333333333334) translate(61.05555555555556 16)"/><use xlink:href="#f" transform="matrix(1,0,0,1,2272,-669.3333333333334) translate(72.16666666666667 16)"/><use xlink:href="#g" transform="matrix(1,0,0,1,2272,-669.3333333333334) translate(0 40)"/><use xlink:href="#h" transform="matrix(1,0,0,1,2272,-669.3333333333334) translate(107.55555555555556 40)"/><use xlink:href="#i" transform="matrix(1,0,0,1,2272,-669.3333333333334) translate(0 64)"/><use xlink:href="#j" transform="matrix(1,0,0,1,2272,-669.3333333333334) translate(61.05555555555556 64)"/><use xlink:href="#k" transform="matrix(1,0,0,1,2272,-669.3333333333334) translate(0 88)"/><use xlink:href="#l" transform="matrix(1,0,0,1,2272,-669.3333333333334) translate(58.722222222222214 88)"/><use xlink:href="#m" transform="matrix(1,0,0,1,2272,-669.3333333333334) translate(0 112)"/><use xlink:href="#n" transform="matrix(1,0,0,1,2272,-669.3333333333334) translate(102.16666666666667 112)"/><use xlink:href="#o" transform="matrix(1,0,0,1,2272,-669.3333333333334) translate(134.33333333333334 112)"/><use xlink:href="#p" transform="matrix(1,0,0,1,2272,-669.3333333333334) translate(145.44444444444446 112)"/><use xlink:href="#o" transform="matrix(1,0,0,1,2272,-669.3333333333334) translate(178.7777777777778 112)"/><use xlink:href="#q" transform="matrix(1,0,0,1,2272,-669.3333333333334) translate(189.8888888888889 112)"/><use xlink:href="#o" transform="matrix(1,0,0,1,2272,-669.3333333333334) translate(234.33333333333337 112)"/><use xlink:href="#r" transform="matrix(1,0,0,1,2272,-669.3333333333334) translate(245.44444444444449 112)"/><use xlink:href="#s" transform="matrix(1,0,0,1,2272,-669.3333333333334) translate(0 136)"/><use xlink:href="#t" transform="matrix(1,0,0,1,2272,-669.3333333333334) translate(147.6111111111111 136)"/><use xlink:href="#u" transform="matrix(1,0,0,1,2272,-669.3333333333334) translate(0 160)"/><use xlink:href="#v" transform="matrix(1,0,0,1,2272,-669.3333333333334) translate(125.27777777777779 160)"/><use xlink:href="#w" transform="matrix(1,0,0,1,2272,-669.3333333333334) translate(0 184)"/><use xlink:href="#x" transform="matrix(1,0,0,1,2272,-669.3333333333334) translate(114.33333333333333 184)"/><use xlink:href="#y" transform="matrix(1,0,0,1,2272,-669.3333333333334) translate(0 208)"/><use xlink:href="#z" transform="matrix(1,0,0,1,2272,-669.3333333333334) translate(78.77777777777779 208)"/><use xlink:href="#A" transform="matrix(1,0,0,1,2272,-669.3333333333334) translate(0 232)"/><use xlink:href="#B" transform="matrix(1,0,0,1,2272,-669.3333333333334) translate(130.94444444444443 232)"/><use xlink:href="#C" transform="matrix(1,0,0,1,2272,-669.3333333333334) translate(0 256)"/><use xlink:href="#D" transform="matrix(1,0,0,1,2272,-669.3333333333334) translate(153.1111111111111 256)"/><use xlink:href="#E" transform="matrix(1,0,0,1,2272,-669.3333333333334) translate(0 280)"/><use xlink:href="#B" transform="matrix(1,0,0,1,2272,-669.3333333333334) translate(91.00000000000001 280)"/><use xlink:href="#F" transform="matrix(1,0,0,1,2272,-669.3333333333334) translate(0 304)"/><use xlink:href="#G" transform="matrix(1,0,0,1,2272,-669.3333333333334) translate(79.05555555555556 304)"/><path d="M1380-337.5a6 6 0 0 1 6-6h368a6 6 0 0 1 6 6v108a6 6 0 0 1-6 6h-368a6 6 0 0 1-6-6z" stroke="#3a414a" stroke-width="2" fill="#e3fae3"/><path d="M1380-300.83h380" stroke="#3a414a" stroke-width="2" fill="none"/><use xlink:href="#H" transform="matrix(1,0,0,1,1388,-335.5000000000001) translate(96.41358024691357 17.944444444444443)"/><use xlink:href="#I" transform="matrix(1,0,0,1,1388,-335.5000000000001) translate(162.83333333333331 17.944444444444443)"/><use xlink:href="#c" transform="matrix(1,0,0,1,1388,-335.5000000000001) translate(176.35185185185185 17.944444444444443)"/><use xlink:href="#J" transform="matrix(1,0,0,1,1392,-292.8333333333334) translate(0 17.77777777777778)"/><use xlink:href="#K" transform="matrix(1,0,0,1,1392,-292.8333333333334) translate(111.04938271604938 17.77777777777778)"/><path d="M1380-488.5a6 6 0 0 1 6-6h368a6 6 0 0 1 6 6v108a6 6 0 0 1-6 6h-368a6 6 0 0 1-6-6z" stroke="#3a414a" stroke-width="2" fill="#e3fae3"/><path d="M1380-451.83h380" stroke="#3a414a" stroke-width="2" fill="none"/><use xlink:href="#L" transform="matrix(1,0,0,1,1388,-486.50000000000006) translate(95.17901234567901 17.944444444444443)"/><use xlink:href="#I" transform="matrix(1,0,0,1,1388,-486.50000000000006) translate(188.75925925925924 17.944444444444443)"/><use xlink:href="#M" transform="matrix(1,0,0,1,1388,-486.50000000000006) translate(202.27777777777777 17.944444444444443)"/><g><use xlink:href="#N" transform="matrix(1,0,0,1,1392,-443.83333333333337) translate(0 17.77777777777778)"/></g><path d="M1820-323a6 6 0 0 1 6-6h368a6 6 0 0 1 6 6v153a6 6 0 0 1-6 6h-368a6 6 0 0 1-6-6z" stroke="#3a414a" stroke-width="2" fill="#e3fae3"/><path d="M1820-286.33h380" stroke="#3a414a" stroke-width="2" fill="none"/><g><use xlink:href="#O" transform="matrix(1,0,0,1,1828,-321) translate(58.172839506172835 17.944444444444443)"/><use xlink:href="#I" transform="matrix(1,0,0,1,1828,-321) translate(201.07407407407408 17.944444444444443)"/><use xlink:href="#c" transform="matrix(1,0,0,1,1828,-321) translate(214.59259259259258 17.944444444444443)"/></g><g><use xlink:href="#P" transform="matrix(1,0,0,1,1832,-278.3333333333333) translate(0 17.77777777777778)"/><use xlink:href="#Q" transform="matrix(1,0,0,1,1832,-278.3333333333333) translate(47.96296296296297 17.77777777777778)"/><use xlink:href="#R" transform="matrix(1,0,0,1,1832,-278.3333333333333) translate(0 44.44444444444444)"/><use xlink:href="#S" transform="matrix(1,0,0,1,1832,-278.3333333333333) translate(102.34567901234567 44.44444444444444)"/><use xlink:href="#T" transform="matrix(1,0,0,1,1832,-278.3333333333333) translate(0 71.11111111111111)"/><use xlink:href="#U" transform="matrix(1,0,0,1,1832,-278.3333333333333) translate(92.46913580246914 71.11111111111111)"/><use xlink:href="#V" transform="matrix(1,0,0,1,1832,-278.3333333333333) translate(146.60493827160494 71.11111111111111)"/><use xlink:href="#W" transform="matrix(1,0,0,1,1832,-278.3333333333333) translate(0 97.77777777777777)"/></g><path d="M2560-154a6 6 0 0 1 6-6h368a6 6 0 0 1 6 6v341a6 6 0 0 1-6 6h-368a6 6 0 0 1-6-6z" stroke="#3a414a" stroke-width="2" fill="#e3fae3"/><path d="M2560-117.33h380" stroke="#3a414a" stroke-width="2" fill="none"/><g><use xlink:href="#X" transform="matrix(1,0,0,1,2568,-152) translate(103.72839506172838 17.944444444444443)"/><use xlink:href="#I" transform="matrix(1,0,0,1,2568,-152) translate(155.5185185185185 17.944444444444443)"/><use xlink:href="#c" transform="matrix(1,0,0,1,2568,-152) translate(169.037037037037 17.944444444444443)"/></g><g><use xlink:href="#Y" transform="matrix(1,0,0,1,2572,-109.33333333333333) translate(0 17.77777777777778)"/><use xlink:href="#Z" transform="matrix(1,0,0,1,2572,-109.33333333333333) translate(78.9506172839506 17.77777777777778)"/><use xlink:href="#aa" transform="matrix(1,0,0,1,2572,-109.33333333333333) translate(0 44.44444444444444)"/><use xlink:href="#ab" transform="matrix(1,0,0,1,2572,-109.33333333333333) translate(115.67901234567901 44.44444444444444)"/><use xlink:href="#ac" transform="matrix(1,0,0,1,2572,-109.33333333333333) translate(0 71.11111111111111)"/><use xlink:href="#ad" transform="matrix(1,0,0,1,2572,-109.33333333333333) translate(79.01234567901234 71.11111111111111)"/><use xlink:href="#ae" transform="matrix(1,0,0,1,2572,-109.33333333333333) translate(0 97.06666666666666)"/><use xlink:href="#af" transform="matrix(1,0,0,1,2572,-109.33333333333333) translate(46.22222222222222 97.06666666666666)"/><use xlink:href="#ag" transform="matrix(1,0,0,1,2572,-109.33333333333333) translate(0 122.66666666666669)"/><use xlink:href="#ah" transform="matrix(1,0,0,1,2572,-109.33333333333333) translate(120.77037037037037 122.66666666666669)"/><use xlink:href="#ai" transform="matrix(1,0,0,1,2572,-109.33333333333333) translate(0 148.26666666666668)"/><use xlink:href="#aj" transform="matrix(1,0,0,1,2572,-109.33333333333333) translate(100.6814814814815 148.26666666666668)"/><use xlink:href="#ak" transform="matrix(1,0,0,1,2572,-109.33333333333333) translate(0 173.86666666666667)"/><use xlink:href="#al" transform="matrix(1,0,0,1,2572,-109.33333333333333) translate(63.94074074074074 173.86666666666667)"/><use xlink:href="#am" transform="matrix(1,0,0,1,2572,-109.33333333333333) translate(0 199.46666666666667)"/><use xlink:href="#an" transform="matrix(1,0,0,1,2572,-109.33333333333333) translate(54.400000000000006 199.46666666666667)"/><use xlink:href="#ao" transform="matrix(1,0,0,1,2572,-109.33333333333333) translate(0 225.06666666666666)"/><use xlink:href="#ap" transform="matrix(1,0,0,1,2572,-109.33333333333333) translate(99.43703703703703 225.06666666666666)"/><use xlink:href="#aq" transform="matrix(1,0,0,1,2572,-109.33333333333333) translate(0 250.66666666666666)"/><use xlink:href="#ar" transform="matrix(1,0,0,1,2572,-109.33333333333333) translate(143.22962962962964 250.66666666666666)"/></g><path d="M1880 106a6 6 0 0 1 6-6h368a6 6 0 0 1 6 6v108a6 6 0 0 1-6 6h-368a6 6 0 0 1-6-6z" stroke="#3a414a" stroke-width="2" fill="#e3fae3"/><path d="M1880 142.67h380" stroke="#3a414a" stroke-width="2" fill="none"/><g><use xlink:href="#as" transform="matrix(1,0,0,1,1888,108) translate(97.80246913580245 17.944444444444443)"/><use xlink:href="#I" transform="matrix(1,0,0,1,1888,108) translate(161.44444444444443 17.944444444444443)"/><use xlink:href="#c" transform="matrix(1,0,0,1,1888,108) translate(174.96296296296293 17.944444444444443)"/></g><g><use xlink:href="#at" transform="matrix(1,0,0,1,1892,150.66666666666669) translate(0 17.77777777777778)"/><use xlink:href="#au" transform="matrix(1,0,0,1,1892,150.66666666666669) translate(69.01234567901236 17.77777777777778)"/></g><path d="M1380-794a6 6 0 0 1 6-6h368a6 6 0 0 1 6 6v108a6 6 0 0 1-6 6h-368a6 6 0 0 1-6-6z" stroke="#3a414a" stroke-width="2" fill="#e3fae3"/><path d="M1380-757.33h380" stroke="#3a414a" stroke-width="2" fill="none"/><g><use xlink:href="#av" transform="matrix(1,0,0,1,1388,-792) translate(113.23456790123457 17.944444444444443)"/><use xlink:href="#aw" transform="matrix(1,0,0,1,1388,-792) translate(213.79012345679013 17.944444444444443)"/></g><g><use xlink:href="#ax" transform="matrix(1,0,0,1,1392,-749.3333333333334) translate(0 17.77777777777778)"/><use xlink:href="#ay" transform="matrix(1,0,0,1,1392,-749.3333333333334) translate(37.03703703703704 17.77777777777778)"/><use xlink:href="#az" transform="matrix(1,0,0,1,1392,-749.3333333333334) translate(83.88888888888889 17.77777777777778)"/><use xlink:href="#aA" transform="matrix(1,0,0,1,1392,-749.3333333333334) translate(133.2716049382716 17.77777777777778)"/><use xlink:href="#aB" transform="matrix(1,0,0,1,1392,-749.3333333333334) translate(146.79012345679013 17.77777777777778)"/></g><path d="M1380-639.5a6 6 0 0 1 6-6h368a6 6 0 0 1 6 6v108a6 6 0 0 1-6 6h-368a6 6 0 0 1-6-6z" stroke="#3a414a" stroke-width="2" fill="#e3fae3"/><path d="M1380-602.83h380" stroke="#3a414a" stroke-width="2" fill="none"/><g><use xlink:href="#aC" transform="matrix(1,0,0,1,1388,-637.5) translate(134.5925925925926 17.944444444444443)"/><use xlink:href="#aw" transform="matrix(1,0,0,1,1388,-637.5) translate(192.4320987654321 17.944444444444443)"/></g><g><use xlink:href="#ax" transform="matrix(1,0,0,1,1392,-594.8333333333334) translate(0 17.77777777777778)"/><use xlink:href="#ay" transform="matrix(1,0,0,1,1392,-594.8333333333334) translate(37.03703703703704 17.77777777777778)"/><use xlink:href="#aD" transform="matrix(1,0,0,1,1392,-594.8333333333334) translate(83.88888888888889 17.77777777777778)"/><use xlink:href="#aA" transform="matrix(1,0,0,1,1392,-594.8333333333334) translate(139.44444444444446 17.77777777777778)"/><use xlink:href="#aE" transform="matrix(1,0,0,1,1392,-594.8333333333334) translate(152.962962962963 17.77777777777778)"/></g><path d="M2450-327.5l.03.95.1 1.4.14 1.4.2 1.4.26 1.35.32 1.36.38 1.36.44 1.37.5 1.36.6 1.4.66 1.4.75 1.43.84 1.45.96 1.5 1.08 1.55 1.22 1.6 1.38 1.68 1.57 1.75 1.8 1.83 2.07 1.95 2.4 2.07 2.8 2.22 3.3 2.38 3.93 2.6 4.76 2.9 5.86 3.2 7.4 3.68 9.7 4.3 13.3 5.25 20.37 7.06 52.38 15.47 69.37 20.2 20.36 7.05 13.32 5.26 9.68 4.3 7.4 3.67 5.88 3.23 4.77 2.88 3.93 2.62 3.3 2.4 2.8 2.2 2.4 2.07 2.07 1.94 1.8 1.83 1.57 1.75 1.38 1.67 1.22 1.6 1.08 1.55.96 1.5.84 1.47.5.93" stroke="#3a414a" stroke-linejoin="round" fill="none"/><path d="M2450.5-327.5l-.96.02v-.52h.93z" stroke="#3a414a" stroke-width=".05" fill="#3a414a"/><path d="M2749.6-162.57l-7.9-12.74 9-2.23z" stroke="#3a414a" fill="#3a414a"/><path d="M2450-327.5l-.15 6.88-.45 7.06-.7 6.8-.98 6.6-1.23 6.4-1.48 6.27-1.7 6.16-1.98 6.06-2.24 6-2.5 5.98-2.82 5.97-3.14 6-3.5 6.06-3.9 6.15-4.37 6.28-4.9 6.46-5.54 6.68-6.3 6.98-7.2 7.37-8.38 7.86-9.9 8.56-12.02 9.5-15.15 11-20.64 13.66-35.8 21.54-101.88 59.02-20.64 13.67-15.15 11-12 9.5-9.9 8.54-8.4 7.85-7.2 7.37-6.3 6.98-5.54 6.68-4.9 6.46-4.37 6.28-3.9 6.15-3.5 6.06-3.14 6-2.8 5.97-2.52 5.98-2.24 6-1.97 6.06-1.72 6.15-1.47 6.25-1.22 6.4-.97 6.6-.5 4.9" stroke="#3a414a" stroke-linejoin="round" fill="none"/><path d="M2450.46-327.47l-.95-.02.03-.5h.94z" stroke="#3a414a" stroke-width=".05" fill="#3a414a"/><path d="M2070.08 97.38l-3.93-14.47 9.25.46z" stroke="#3a414a" fill="#3a414a"/><path d="M2010.7-346.37l.74-6.9 1.07-7.27 1.36-7.06 1.6-6.87 1.9-6.72 2.12-6.55 2.4-6.44 2.65-6.3 2.92-6.22 3.2-6.13 3.5-6.03 3.78-5.97 4.1-5.9 4.42-5.83 4.78-5.77 5.15-5.7 5.53-5.67 5.97-5.6 6.4-5.5 6.88-5.46 7.38-5.36 7.9-5.25 8.48-5.12 9.06-4.98 9.66-4.8 10.3-4.57 10.9-4.32 11.57-4 12.15-3.68 12.76-3.28 13.3-2.82 13.77-2.33 14.16-1.8 14.46-1.2 14.64-.62 6.86-.08" stroke="#3a414a" stroke-linejoin="round" fill="none"/><path d="M2010.07-331.62l-4-14.45 9.26.4z" stroke="#3a414a" fill="#3a414a"/><path d="M2259-524.02h-.5l-.02-.95h.52z" stroke="#3a414a" stroke-width=".05" fill="#3a414a"/><path d="M2261.5 160l8.83-.2 8.62-.53 8.04-.85 7.55-1.1 7.16-1.38 6.86-1.6 6.58-1.84 6.38-2.07 6.25-2.33 6.16-2.6 6.15-2.88 6.2-3.24 6.33-3.66 6.6-4.2 7.04-4.88 7.8-5.94 9.35-7.74 14-12.67 39.2-36.76 9.35-7.74 7.8-5.94 7.05-4.9 6.6-4.18 6.33-3.66 6.2-3.24 6.14-2.9 6.16-2.58 6.25-2.33 6.38-2.07 6.6-1.84 6.82-1.6 7.17-1.37 7.56-1.12 8.05-.85 1.58-.1" stroke="#3a414a" stroke-linejoin="round" fill="none"/><path d="M2261.53 160.46h-.53v-.94h.5z" stroke="#3a414a" stroke-width=".05" fill="#3a414a"/><path d="M2557.38 16.56l-14.07 5.2-.35-9.28z" stroke="#3a414a" fill="#3a414a"/><path d="M2010-162.5l.34 16 .88 14.1 1.3 12.38 1.63 11.1 1.95 10.23 2.26 9.67 2.64 9.45 3.15 9.68 4 10.77 6.52 15.4 17.17 38.86 4 10.77 3.16 9.68 2.64 9.45 2.26 9.66 1.95 10.22 1.64 11.1 1.28 12.37.88 14.1v.12" stroke="#3a414a" stroke-linejoin="round" fill="none"/><path d="M2010.48-162.5l-.94.03v-.53h.93z" stroke="#3a414a" stroke-width=".05" fill="#3a414a"/><path d="M2069.97 97.38l-4.93-14.17 9.27-.17z" stroke="#3a414a" fill="#3a414a"/><defs><path d="M238-95c0 69-44 99-111 99C63 4 22-25 22-93v-155h51v151c-1 38 19 59 55 60 90 1 49-130 58-211h52v153" id="aF"/><path d="M137-138c1-29-70-34-71-4 15 46 118 7 119 86 1 83-164 76-172 9l43-7c4 19 20 25 44 25 33 8 57-30 24-41C81-84 22-81 20-136c-2-80 154-74 161-7" id="aG"/><path d="M185-48c-13 30-37 53-82 52C43 2 14-33 14-96s30-98 90-98c62 0 83 45 84 108H66c0 31 8 55 39 56 18 0 30-7 34-22zm-45-69c5-46-57-63-70-21-2 6-4 13-4 21h74" id="aH"/><path d="M135-150c-39-12-60 13-60 57V0H25l-1-190h47c2 13-1 29 3 40 6-28 27-53 61-41v41" id="aI"/><g id="a"><use transform="matrix(0.06172839506172839,0,0,0.06172839506172839,0,0)" xlink:href="#aF"/><use transform="matrix(0.06172839506172839,0,0,0.06172839506172839,15.987654320987653,0)" xlink:href="#aG"/><use transform="matrix(0.06172839506172839,0,0,0.06172839506172839,28.333333333333332,0)" xlink:href="#aH"/><use transform="matrix(0.06172839506172839,0,0,0.06172839506172839,40.67901234567901,0)" xlink:href="#aI"/></g><path d="M14-72v-43h91v43H14" id="aJ"/><use transform="matrix(0.06172839506172839,0,0,0.06172839506172839,0,0)" xlink:href="#aJ" id="b"/><path d="M76-208v77h127v40H76V0H24v-248h183v40H76" id="aK"/><path d="M25-224v-37h50v37H25zM25 0v-190h50V0H25" id="aL"/><path d="M135-194c52 0 70 43 70 98 0 56-19 99-73 100-30 1-46-15-58-35L72 0H24l1-261h50v104c11-23 29-37 60-37zM114-30c31 0 40-27 40-66 0-37-7-63-39-63s-41 28-41 65c0 36 8 64 40 64" id="aM"/><path d="M133-34C117-15 103 5 69 4 32 3 11-16 11-54c-1-60 55-63 116-61 1-26-3-47-28-47-18 1-26 9-28 27l-52-2c7-38 36-58 82-57s74 22 75 68l1 82c-1 14 12 18 25 15v27c-30 8-71 5-69-32zm-48 3c29 0 43-24 42-57-32 0-66-3-65 30 0 17 8 27 23 27" id="aN"/><g id="c"><use transform="matrix(0.06172839506172839,0,0,0.06172839506172839,0,0)" xlink:href="#aK"/><use transform="matrix(0.06172839506172839,0,0,0.06172839506172839,13.518518518518517,0)" xlink:href="#aL"/><use transform="matrix(0.06172839506172839,0,0,0.06172839506172839,19.691358024691358,0)" xlink:href="#aI"/><use transform="matrix(0.06172839506172839,0,0,0.06172839506172839,28.333333333333332,0)" xlink:href="#aH"/><use transform="matrix(0.06172839506172839,0,0,0.06172839506172839,40.67901234567901,0)" xlink:href="#aM"/><use transform="matrix(0.06172839506172839,0,0,0.06172839506172839,54.19753086419753,0)" xlink:href="#aN"/><use transform="matrix(0.06172839506172839,0,0,0.06172839506172839,66.54320987654322,0)" xlink:href="#aG"/><use transform="matrix(0.06172839506172839,0,0,0.06172839506172839,78.8888888888889,0)" xlink:href="#aH"/></g><path d="M84 4C-5 8 30-112 23-190h32v120c0 31 7 50 39 49 72-2 45-101 50-169h31l1 190h-30c-1-10 1-25-2-33-11 22-28 36-60 37" id="aO"/><path d="M135-143c-3-34-86-38-87 0 15 53 115 12 119 90S17 21 10-45l28-5c4 36 97 45 98 0-10-56-113-15-118-90-4-57 82-63 122-42 12 7 21 19 24 35" id="aP"/><path d="M100-194c63 0 86 42 84 106H49c0 40 14 67 53 68 26 1 43-12 49-29l28 8c-11 28-37 45-77 45C44 4 14-33 15-96c1-61 26-98 85-98zm52 81c6-60-76-77-97-28-3 7-6 17-6 28h103" id="aQ"/><path d="M114-163C36-179 61-72 57 0H25l-1-190h30c1 12-1 29 2 39 6-27 23-49 58-41v29" id="aR"/><path d="M33 0v-248h34V0H33" id="aS"/><path d="M85-194c31 0 48 13 60 33l-1-100h32l1 261h-30c-2-10 0-23-3-31C134-8 116 4 85 4 32 4 16-35 15-94c0-66 23-100 70-100zm9 24c-40 0-46 34-46 75 0 40 6 74 45 74 42 0 51-32 51-76 0-42-9-74-50-73" id="aT"/><g id="d"><use transform="matrix(0.05555555555555555,0,0,0.05555555555555555,0,0)" xlink:href="#aO"/><use transform="matrix(0.05555555555555555,0,0,0.05555555555555555,11.11111111111111,0)" xlink:href="#aP"/><use transform="matrix(0.05555555555555555,0,0,0.05555555555555555,21.11111111111111,0)" xlink:href="#aQ"/><use transform="matrix(0.05555555555555555,0,0,0.05555555555555555,32.22222222222222,0)" xlink:href="#aR"/><use transform="matrix(0.05555555555555555,0,0,0.05555555555555555,38.83333333333333,0)" xlink:href="#aS"/><use transform="matrix(0.05555555555555555,0,0,0.05555555555555555,44.388888888888886,0)" xlink:href="#aT"/></g><path d="M33-154v-36h34v36H33zM33 0v-36h34V0H33" id="aU"/><use transform="matrix(0.05555555555555555,0,0,0.05555555555555555,0,0)" xlink:href="#aU" id="e"/><path d="M140-251c81 0 123 46 123 126C263-46 219 4 140 4 59 4 17-45 17-125s42-126 123-126zm0 227c63 0 89-41 89-101s-29-99-89-99c-61 0-89 39-89 99S79-25 140-24" id="aV"/><path d="M115-194c53 0 69 39 70 98 0 66-23 100-70 100C84 3 66-7 56-30L54 0H23l1-261h32v101c10-23 28-34 59-34zm-8 174c40 0 45-34 45-75 0-40-5-75-45-74-42 0-51 32-51 76 0 43 10 73 51 73" id="aW"/><path d="M24-231v-30h32v30H24zM-9 49c24 4 33-6 33-30v-209h32V24c2 40-23 58-65 49V49" id="aX"/><path d="M96-169c-40 0-48 33-48 73s9 75 48 75c24 0 41-14 43-38l32 2c-6 37-31 61-74 61-59 0-76-41-82-99-10-93 101-131 147-64 4 7 5 14 7 22l-32 3c-4-21-16-35-41-35" id="aY"/><path d="M59-47c-2 24 18 29 38 22v24C64 9 27 4 27-40v-127H5v-23h24l9-43h21v43h35v23H59v120" id="aZ"/><g id="f"><use transform="matrix(0.05555555555555555,0,0,0.05555555555555555,0,0)" xlink:href="#aV"/><use transform="matrix(0.05555555555555555,0,0,0.05555555555555555,15.555555555555555,0)" xlink:href="#aW"/><use transform="matrix(0.05555555555555555,0,0,0.05555555555555555,26.666666666666664,0)" xlink:href="#aX"/><use transform="matrix(0.05555555555555555,0,0,0.05555555555555555,31.055555555555554,0)" xlink:href="#aQ"/><use transform="matrix(0.05555555555555555,0,0,0.05555555555555555,42.166666666666664,0)" xlink:href="#aY"/><use transform="matrix(0.05555555555555555,0,0,0.05555555555555555,52.166666666666664,0)" xlink:href="#aZ"/><use transform="matrix(0.05555555555555555,0,0,0.05555555555555555,57.72222222222222,0)" xlink:href="#aS"/><use transform="matrix(0.05555555555555555,0,0,0.05555555555555555,63.27777777777777,0)" xlink:href="#aT"/></g><path d="M115-194c55 1 70 41 70 98S169 2 115 4C84 4 66-9 55-30l1 105H24l-1-265h31l2 30c10-21 28-34 59-34zm-8 174c40 0 45-34 45-75s-6-73-45-74c-42 0-51 32-51 76 0 43 10 73 51 73" id="ba"/><path d="M210-169c-67 3-38 105-44 169h-31v-121c0-29-5-50-35-48C34-165 62-65 56 0H25l-1-190h30c1 10-1 24 2 32 10-44 99-50 107 0 11-21 27-35 58-36 85-2 47 119 55 194h-31v-121c0-29-5-49-35-48" id="bb"/><path d="M24-231v-30h32v30H24zM24 0v-190h32V0H24" id="bc"/><path d="M100-194c62-1 85 37 85 99 1 63-27 99-86 99S16-35 15-95c0-66 28-99 85-99zM99-20c44 1 53-31 53-75 0-43-8-75-51-75s-53 32-53 75 10 74 51 75" id="bd"/><path d="M117-194c89-4 53 116 60 194h-32v-121c0-31-8-49-39-48C34-167 62-67 57 0H25l-1-190h30c1 10-1 24 2 32 11-22 29-35 61-36" id="be"/><g id="g"><use transform="matrix(0.05555555555555555,0,0,0.05555555555555555,0,0)" xlink:href="#ba"/><use transform="matrix(0.05555555555555555,0,0,0.05555555555555555,11.11111111111111,0)" xlink:href="#aQ"/><use transform="matrix(0.05555555555555555,0,0,0.05555555555555555,22.22222222222222,0)" xlink:href="#aR"/><use transform="matrix(0.05555555555555555,0,0,0.05555555555555555,28.833333333333332,0)" xlink:href="#bb"/><use transform="matrix(0.05555555555555555,0,0,0.05555555555555555,45.44444444444444,0)" xlink:href="#bc"/><use transform="matrix(0.05555555555555555,0,0,0.05555555555555555,49.83333333333333,0)" xlink:href="#aP"/><use transform="matrix(0.05555555555555555,0,0,0.05555555555555555,59.83333333333333,0)" xlink:href="#aP"/><use transform="matrix(0.05555555555555555,0,0,0.05555555555555555,69.83333333333333,0)" xlink:href="#bc"/><use transform="matrix(0.05555555555555555,0,0,0.05555555555555555,74.22222222222221,0)" xlink:href="#bd"/><use transform="matrix(0.05555555555555555,0,0,0.05555555555555555,85.33333333333333,0)" xlink:href="#be"/><use transform="matrix(0.05555555555555555,0,0,0.05555555555555555,96.44444444444444,0)" xlink:href="#aU"/></g><path d="M24 0v-261h32V0H24" id="bf"/><g id="h"><use transform="matrix(0.05555555555555555,0,0,0.05555555555555555,0,0)" xlink:href="#aW"/><use transform="matrix(0.05555555555555555,0,0,0.05555555555555555,11.11111111111111,0)" xlink:href="#bd"/><use transform="matrix(0.05555555555555555,0,0,0.05555555555555555,22.22222222222222,0)" xlink:href="#bd"/><use transform="matrix(0.05555555555555555,0,0,0.05555555555555555,33.33333333333333,0)" xlink:href="#bf"/></g><path d="M141-36C126-15 110 5 73 4 37 3 15-17 15-53c-1-64 63-63 125-63 3-35-9-54-41-54-24 1-41 7-42 31l-33-3c5-37 33-52 76-52 45 0 72 20 72 64v82c-1 20 7 32 28 27v20c-31 9-61-2-59-35zM48-53c0 20 12 33 32 33 41-3 63-29 60-74-43 2-92-5-92 41" id="bg"/><g id="i"><use transform="matrix(0.05555555555555555,0,0,0.05555555555555555,0,0)" xlink:href="#be"/><use transform="matrix(0.05555555555555555,0,0,0.05555555555555555,11.11111111111111,0)" xlink:href="#bg"/><use transform="matrix(0.05555555555555555,0,0,0.05555555555555555,22.22222222222222,0)" xlink:href="#bb"/><use transform="matrix(0.05555555555555555,0,0,0.05555555555555555,38.83333333333333,0)" xlink:href="#aQ"/><use transform="matrix(0.05555555555555555,0,0,0.05555555555555555,49.94444444444444,0)" xlink:href="#aU"/></g><path d="M185-189c-5-48-123-54-124 2 14 75 158 14 163 119 3 78-121 87-175 55-17-10-28-26-33-46l33-7c5 56 141 63 141-1 0-78-155-14-162-118-5-82 145-84 179-34 5 7 8 16 11 25" id="bh"/><path d="M177-190C167-65 218 103 67 71c-23-6-38-20-44-43l32-5c15 47 100 32 89-28v-30C133-14 115 1 83 1 29 1 15-40 15-95c0-56 16-97 71-98 29-1 48 16 59 35 1-10 0-23 2-32h30zM94-22c36 0 50-32 50-73 0-42-14-75-50-75-39 0-46 34-46 75s6 73 46 73" id="bi"/><g id="j"><use transform="matrix(0.05555555555555555,0,0,0.05555555555555555,0,0)" xlink:href="#bh"/><use transform="matrix(0.05555555555555555,0,0,0.05555555555555555,13.333333333333332,0)" xlink:href="#aZ"/><use transform="matrix(0.05555555555555555,0,0,0.05555555555555555,18.888888888888886,0)" xlink:href="#aR"/><use transform="matrix(0.05555555555555555,0,0,0.05555555555555555,25.499999999999996,0)" xlink:href="#bc"/><use transform="matrix(0.05555555555555555,0,0,0.05555555555555555,29.888888888888886,0)" xlink:href="#be"/><use transform="matrix(0.05555555555555555,0,0,0.05555555555555555,41,0)" xlink:href="#bi"/></g><g id="k"><use transform="matrix(0.05555555555555555,0,0,0.05555555555555555,0,0)" xlink:href="#aQ"/><use transform="matrix(0.05555555555555555,0,0,0.05555555555555555,11.11111111111111,0)" xlink:href="#bb"/><use transform="matrix(0.05555555555555555,0,0,0.05555555555555555,27.72222222222222,0)" xlink:href="#bg"/><use transform="matrix(0.05555555555555555,0,0,0.05555555555555555,38.83333333333333,0)" xlink:href="#bc"/><use transform="matrix(0.05555555555555555,0,0,0.05555555555555555,43.222222222222214,0)" xlink:href="#bf"/><use transform="matrix(0.05555555555555555,0,0,0.05555555555555555,47.6111111111111,0)" xlink:href="#aU"/></g><g id="l"><use transform="matrix(0.05555555555555555,0,0,0.05555555555555555,0,0)" xlink:href="#bh"/><use transform="matrix(0.05555555555555555,0,0,0.05555555555555555,13.333333333333332,0)" xlink:href="#aZ"/><use transform="matrix(0.05555555555555555,0,0,0.05555555555555555,18.888888888888886,0)" xlink:href="#aR"/><use transform="matrix(0.05555555555555555,0,0,0.05555555555555555,25.499999999999996,0)" xlink:href="#bc"/><use transform="matrix(0.05555555555555555,0,0,0.05555555555555555,29.888888888888886,0)" xlink:href="#be"/><use transform="matrix(0.05555555555555555,0,0,0.05555555555555555,41,0)" xlink:href="#bi"/></g><path d="M30-248c87 1 191-15 191 75 0 78-77 80-158 76V0H30v-248zm33 125c57 0 124 11 124-50 0-59-68-47-124-48v98" id="bj"/><path d="M106-169C34-169 62-67 57 0H25v-261h32l-1 103c12-21 28-36 61-36 89 0 53 116 60 194h-32v-121c2-32-8-49-39-48" id="bk"/><g id="m"><use transform="matrix(0.05555555555555555,0,0,0.05555555555555555,0,0)" xlink:href="#aO"/><use transform="matrix(0.05555555555555555,0,0,0.05555555555555555,11.11111111111111,0)" xlink:href="#aP"/><use transform="matrix(0.05555555555555555,0,0,0.05555555555555555,21.11111111111111,0)" xlink:href="#aQ"/><use transform="matrix(0.05555555555555555,0,0,0.05555555555555555,32.22222222222222,0)" xlink:href="#aR"/><use transform="matrix(0.05555555555555555,0,0,0.05555555555555555,38.83333333333333,0)" xlink:href="#bj"/><use transform="matrix(0.05555555555555555,0,0,0.05555555555555555,52.16666666666666,0)" xlink:href="#bk"/><use transform="matrix(0.05555555555555555,0,0,0.05555555555555555,63.27777777777777,0)" xlink:href="#bd"/><use transform="matrix(0.05555555555555555,0,0,0.05555555555555555,74.38888888888889,0)" xlink:href="#aZ"/><use transform="matrix(0.05555555555555555,0,0,0.05555555555555555,79.94444444444444,0)" xlink:href="#bd"/><use transform="matrix(0.05555555555555555,0,0,0.05555555555555555,91.05555555555556,0)" xlink:href="#aU"/></g><g id="n"><use transform="matrix(0.05555555555555555,0,0,0.05555555555555555,0,0)" xlink:href="#aX"/><use transform="matrix(0.05555555555555555,0,0,0.05555555555555555,4.388888888888888,0)" xlink:href="#ba"/><use transform="matrix(0.05555555555555555,0,0,0.05555555555555555,15.5,0)" xlink:href="#bi"/></g><path d="M0 4l72-265h28L28 4H0" id="bl"/><use transform="matrix(0.05555555555555555,0,0,0.05555555555555555,0,0)" xlink:href="#bl" id="o"/><path d="M101-234c-31-9-42 10-38 44h38v23H63V0H32v-167H5v-23h27c-7-52 17-82 69-68v24" id="bm"/><g id="p"><use transform="matrix(0.05555555555555555,0,0,0.05555555555555555,0,0)" xlink:href="#ba"/><use transform="matrix(0.05555555555555555,0,0,0.05555555555555555,11.11111111111111,0)" xlink:href="#aT"/><use transform="matrix(0.05555555555555555,0,0,0.05555555555555555,22.22222222222222,0)" xlink:href="#bm"/></g><g id="q"><use transform="matrix(0.05555555555555555,0,0,0.05555555555555555,0,0)" xlink:href="#ba"/><use transform="matrix(0.05555555555555555,0,0,0.05555555555555555,11.11111111111111,0)" xlink:href="#bg"/><use transform="matrix(0.05555555555555555,0,0,0.05555555555555555,22.22222222222222,0)" xlink:href="#aZ"/><use transform="matrix(0.05555555555555555,0,0,0.05555555555555555,27.77777777777778,0)" xlink:href="#bk"/></g><g id="r"><use transform="matrix(0.05555555555555555,0,0,0.05555555555555555,0,0)" xlink:href="#bm"/><use transform="matrix(0.05555555555555555,0,0,0.05555555555555555,5.555555555555555,0)" xlink:href="#bc"/><use transform="matrix(0.05555555555555555,0,0,0.05555555555555555,9.944444444444443,0)" xlink:href="#aR"/><use transform="matrix(0.05555555555555555,0,0,0.05555555555555555,16.555555555555554,0)" xlink:href="#aQ"/><use transform="matrix(0.05555555555555555,0,0,0.05555555555555555,27.666666666666664,0)" xlink:href="#aW"/><use transform="matrix(0.05555555555555555,0,0,0.05555555555555555,38.77777777777777,0)" xlink:href="#bg"/><use transform="matrix(0.05555555555555555,0,0,0.05555555555555555,49.888888888888886,0)" xlink:href="#aP"/><use transform="matrix(0.05555555555555555,0,0,0.05555555555555555,59.888888888888886,0)" xlink:href="#aQ"/></g><g id="s"><use transform="matrix(0.05555555555555555,0,0,0.05555555555555555,0,0)" xlink:href="#aO"/><use transform="matrix(0.05555555555555555,0,0,0.05555555555555555,11.11111111111111,0)" xlink:href="#aP"/><use transform="matrix(0.05555555555555555,0,0,0.05555555555555555,21.11111111111111,0)" xlink:href="#aQ"/><use transform="matrix(0.05555555555555555,0,0,0.05555555555555555,32.22222222222222,0)" xlink:href="#aR"/><use transform="matrix(0.05555555555555555,0,0,0.05555555555555555,38.83333333333333,0)" xlink:href="#bj"/><use transform="matrix(0.05555555555555555,0,0,0.05555555555555555,52.16666666666666,0)" xlink:href="#aR"/><use transform="matrix(0.05555555555555555,0,0,0.05555555555555555,58.77777777777777,0)" xlink:href="#aQ"/><use transform="matrix(0.05555555555555555,0,0,0.05555555555555555,69.88888888888889,0)" xlink:href="#bm"/><use transform="matrix(0.05555555555555555,0,0,0.05555555555555555,75.44444444444444,0)" xlink:href="#aQ"/><use transform="matrix(0.05555555555555555,0,0,0.05555555555555555,86.55555555555556,0)" xlink:href="#aR"/><use transform="matrix(0.05555555555555555,0,0,0.05555555555555555,93.16666666666667,0)" xlink:href="#aQ"/><use transform="matrix(0.05555555555555555,0,0,0.05555555555555555,104.27777777777779,0)" xlink:href="#be"/><use transform="matrix(0.05555555555555555,0,0,0.05555555555555555,115.38888888888891,0)" xlink:href="#aY"/><use transform="matrix(0.05555555555555555,0,0,0.05555555555555555,125.38888888888891,0)" xlink:href="#aQ"/><use transform="matrix(0.05555555555555555,0,0,0.05555555555555555,136.5,0)" xlink:href="#aU"/></g><path d="M30-248c118-7 216 8 213 122C240-48 200 0 122 0H30v-248zM63-27c89 8 146-16 146-99s-60-101-146-95v194" id="bn"/><g id="t"><use transform="matrix(0.05555555555555555,0,0,0.05555555555555555,0,0)" xlink:href="#bn"/><use transform="matrix(0.05555555555555555,0,0,0.05555555555555555,14.388888888888888,0)" xlink:href="#bc"/><use transform="matrix(0.05555555555555555,0,0,0.05555555555555555,18.777777777777775,0)" xlink:href="#aY"/><use transform="matrix(0.05555555555555555,0,0,0.05555555555555555,28.777777777777775,0)" xlink:href="#aZ"/></g><path d="M143 0L79-87 56-68V0H24v-261h32v163l83-92h37l-77 82L181 0h-38" id="bo"/><path d="M197 0v-115H63V0H30v-248h33v105h134v-105h34V0h-34" id="bp"/><path d="M179-190L93 31C79 59 56 82 12 73V49c39 6 53-20 64-50L1-190h34L92-34l54-156h33" id="bq"/><g id="u"><use transform="matrix(0.05555555555555555,0,0,0.05555555555555555,0,0)" xlink:href="#bk"/><use transform="matrix(0.05555555555555555,0,0,0.05555555555555555,11.11111111111111,0)" xlink:href="#bc"/><use transform="matrix(0.05555555555555555,0,0,0.05555555555555555,15.5,0)" xlink:href="#bo"/><use transform="matrix(0.05555555555555555,0,0,0.05555555555555555,25.5,0)" xlink:href="#bc"/><use transform="matrix(0.05555555555555555,0,0,0.05555555555555555,29.888888888888886,0)" xlink:href="#be"/><use transform="matrix(0.05555555555555555,0,0,0.05555555555555555,41,0)" xlink:href="#bi"/><use transform="matrix(0.05555555555555555,0,0,0.05555555555555555,52.111111111111114,0)" xlink:href="#bp"/><use transform="matrix(0.05555555555555555,0,0,0.05555555555555555,66.5,0)" xlink:href="#bc"/><use transform="matrix(0.05555555555555555,0,0,0.05555555555555555,70.88888888888889,0)" xlink:href="#aP"/><use transform="matrix(0.05555555555555555,0,0,0.05555555555555555,80.88888888888889,0)" xlink:href="#aZ"/><use transform="matrix(0.05555555555555555,0,0,0.05555555555555555,86.44444444444444,0)" xlink:href="#bd"/><use transform="matrix(0.05555555555555555,0,0,0.05555555555555555,97.55555555555556,0)" xlink:href="#aR"/><use transform="matrix(0.05555555555555555,0,0,0.05555555555555555,104.16666666666667,0)" xlink:href="#bq"/><use transform="matrix(0.05555555555555555,0,0,0.05555555555555555,114.16666666666666,0)" xlink:href="#aU"/></g><path d="M30 0v-248h33v221h125V0H30" id="br"/><path d="M18-100v-36l175-74v27L42-118l151 64v27" id="bs"/><path d="M127-220V0H93v-220H8v-28h204v28h-85" id="bt"/><path d="M18-27v-27l151-64-151-65v-27l175 74v36" id="bu"/><g id="v"><use transform="matrix(0.05555555555555555,0,0,0.05555555555555555,0,0)" xlink:href="#br"/><use transform="matrix(0.05555555555555555,0,0,0.05555555555555555,11.11111111111111,0)" xlink:href="#bc"/><use transform="matrix(0.05555555555555555,0,0,0.05555555555555555,15.5,0)" xlink:href="#aP"/><use transform="matrix(0.05555555555555555,0,0,0.05555555555555555,25.5,0)" xlink:href="#aZ"/><use transform="matrix(0.05555555555555555,0,0,0.05555555555555555,31.05555555555556,0)" xlink:href="#bs"/><use transform="matrix(0.05555555555555555,0,0,0.05555555555555555,42.72222222222222,0)" xlink:href="#bm"/><use transform="matrix(0.05555555555555555,0,0,0.05555555555555555,48.27777777777778,0)" xlink:href="#bc"/><use transform="matrix(0.05555555555555555,0,0,0.05555555555555555,52.666666666666664,0)" xlink:href="#be"/><use transform="matrix(0.05555555555555555,0,0,0.05555555555555555,63.77777777777777,0)" xlink:href="#bc"/><use transform="matrix(0.05555555555555555,0,0,0.05555555555555555,68.16666666666666,0)" xlink:href="#aP"/><use transform="matrix(0.05555555555555555,0,0,0.05555555555555555,78.16666666666666,0)" xlink:href="#bk"/><use transform="matrix(0.05555555555555555,0,0,0.05555555555555555,89.27777777777777,0)" xlink:href="#aQ"/><use transform="matrix(0.05555555555555555,0,0,0.05555555555555555,100.38888888888889,0)" xlink:href="#aT"/><use transform="matrix(0.05555555555555555,0,0,0.05555555555555555,111.5,0)" xlink:href="#bt"/><use transform="matrix(0.05555555555555555,0,0,0.05555555555555555,122.94444444444444,0)" xlink:href="#aR"/><use transform="matrix(0.05555555555555555,0,0,0.05555555555555555,129.55555555555554,0)" xlink:href="#bg"/><use transform="matrix(0.05555555555555555,0,0,0.05555555555555555,140.66666666666666,0)" xlink:href="#bc"/><use transform="matrix(0.05555555555555555,0,0,0.05555555555555555,145.05555555555554,0)" xlink:href="#bf"/><use transform="matrix(0.05555555555555555,0,0,0.05555555555555555,149.44444444444443,0)" xlink:href="#bu"/></g><path d="M108 0H70L1-190h34L89-25l56-165h34" id="bv"/><g id="w"><use transform="matrix(0.05555555555555555,0,0,0.05555555555555555,0,0)" xlink:href="#aP"/><use transform="matrix(0.05555555555555555,0,0,0.05555555555555555,10,0)" xlink:href="#bg"/><use transform="matrix(0.05555555555555555,0,0,0.05555555555555555,21.11111111111111,0)" xlink:href="#bv"/><use transform="matrix(0.05555555555555555,0,0,0.05555555555555555,31.11111111111111,0)" xlink:href="#aQ"/><use transform="matrix(0.05555555555555555,0,0,0.05555555555555555,42.22222222222222,0)" xlink:href="#aT"/><use transform="matrix(0.05555555555555555,0,0,0.05555555555555555,53.33333333333333,0)" xlink:href="#bp"/><use transform="matrix(0.05555555555555555,0,0,0.05555555555555555,67.72222222222221,0)" xlink:href="#bc"/><use transform="matrix(0.05555555555555555,0,0,0.05555555555555555,72.1111111111111,0)" xlink:href="#bo"/><use transform="matrix(0.05555555555555555,0,0,0.05555555555555555,82.1111111111111,0)" xlink:href="#aQ"/><use transform="matrix(0.05555555555555555,0,0,0.05555555555555555,93.22222222222221,0)" xlink:href="#aP"/><use transform="matrix(0.05555555555555555,0,0,0.05555555555555555,103.22222222222221,0)" xlink:href="#aU"/></g><g id="x"><use transform="matrix(0.05555555555555555,0,0,0.05555555555555555,0,0)" xlink:href="#br"/><use transform="matrix(0.05555555555555555,0,0,0.05555555555555555,11.11111111111111,0)" xlink:href="#bc"/><use transform="matrix(0.05555555555555555,0,0,0.05555555555555555,15.5,0)" xlink:href="#aP"/><use transform="matrix(0.05555555555555555,0,0,0.05555555555555555,25.5,0)" xlink:href="#aZ"/><use transform="matrix(0.05555555555555555,0,0,0.05555555555555555,31.05555555555556,0)" xlink:href="#bs"/><use transform="matrix(0.05555555555555555,0,0,0.05555555555555555,42.72222222222222,0)" xlink:href="#aZ"/><use transform="matrix(0.05555555555555555,0,0,0.05555555555555555,48.27777777777778,0)" xlink:href="#aR"/><use transform="matrix(0.05555555555555555,0,0,0.05555555555555555,54.888888888888886,0)" xlink:href="#bg"/><use transform="matrix(0.05555555555555555,0,0,0.05555555555555555,66,0)" xlink:href="#bc"/><use transform="matrix(0.05555555555555555,0,0,0.05555555555555555,70.38888888888889,0)" xlink:href="#bf"/><use transform="matrix(0.05555555555555555,0,0,0.05555555555555555,74.77777777777777,0)" xlink:href="#bu"/></g><path d="M194 0L95-120 63-95V0H30v-248h33v124l119-124h40L117-140 236 0h-42" id="bw"/><g id="y"><use transform="matrix(0.05555555555555555,0,0,0.05555555555555555,0,0)" xlink:href="#aZ"/><use transform="matrix(0.05555555555555555,0,0,0.05555555555555555,5.555555555555555,0)" xlink:href="#bd"/><use transform="matrix(0.05555555555555555,0,0,0.05555555555555555,16.666666666666664,0)" xlink:href="#aZ"/><use transform="matrix(0.05555555555555555,0,0,0.05555555555555555,22.22222222222222,0)" xlink:href="#bf"/><use transform="matrix(0.05555555555555555,0,0,0.05555555555555555,26.61111111111111,0)" xlink:href="#aQ"/><use transform="matrix(0.05555555555555555,0,0,0.05555555555555555,37.72222222222222,0)" xlink:href="#bw"/><use transform="matrix(0.05555555555555555,0,0,0.05555555555555555,51.05555555555556,0)" xlink:href="#bb"/><use transform="matrix(0.05555555555555555,0,0,0.05555555555555555,67.66666666666667,0)" xlink:href="#aU"/></g><g id="z"><use transform="matrix(0.05555555555555555,0,0,0.05555555555555555,0,0)" xlink:href="#aT"/><use transform="matrix(0.05555555555555555,0,0,0.05555555555555555,11.11111111111111,0)" xlink:href="#bd"/><use transform="matrix(0.05555555555555555,0,0,0.05555555555555555,22.22222222222222,0)" xlink:href="#aO"/><use transform="matrix(0.05555555555555555,0,0,0.05555555555555555,33.33333333333333,0)" xlink:href="#aW"/><use transform="matrix(0.05555555555555555,0,0,0.05555555555555555,44.44444444444444,0)" xlink:href="#bf"/><use transform="matrix(0.05555555555555555,0,0,0.05555555555555555,48.83333333333333,0)" xlink:href="#aQ"/></g><path d="M30 0v-248h187v28H63v79h144v27H63v87h162V0H30" id="bx"/><g id="A"><use transform="matrix(0.05555555555555555,0,0,0.05555555555555555,0,0)" xlink:href="#aZ"/><use transform="matrix(0.05555555555555555,0,0,0.05555555555555555,5.555555555555555,0)" xlink:href="#bd"/><use transform="matrix(0.05555555555555555,0,0,0.05555555555555555,16.666666666666664,0)" xlink:href="#aZ"/><use transform="matrix(0.05555555555555555,0,0,0.05555555555555555,22.22222222222222,0)" xlink:href="#bg"/><use transform="matrix(0.05555555555555555,0,0,0.05555555555555555,33.33333333333333,0)" xlink:href="#bf"/><use transform="matrix(0.05555555555555555,0,0,0.05555555555555555,37.722222222222214,0)" xlink:href="#bx"/><use transform="matrix(0.05555555555555555,0,0,0.05555555555555555,51.05555555555554,0)" xlink:href="#bf"/><use transform="matrix(0.05555555555555555,0,0,0.05555555555555555,55.44444444444443,0)" xlink:href="#aQ"/><use transform="matrix(0.05555555555555555,0,0,0.05555555555555555,66.55555555555554,0)" xlink:href="#bv"/><use transform="matrix(0.05555555555555555,0,0,0.05555555555555555,76.55555555555554,0)" xlink:href="#bg"/><use transform="matrix(0.05555555555555555,0,0,0.05555555555555555,87.66666666666666,0)" xlink:href="#aZ"/><use transform="matrix(0.05555555555555555,0,0,0.05555555555555555,93.22222222222221,0)" xlink:href="#bc"/><use transform="matrix(0.05555555555555555,0,0,0.05555555555555555,97.6111111111111,0)" xlink:href="#bd"/><use transform="matrix(0.05555555555555555,0,0,0.05555555555555555,108.72222222222221,0)" xlink:href="#be"/><use transform="matrix(0.05555555555555555,0,0,0.05555555555555555,119.83333333333333,0)" xlink:href="#aU"/></g><g id="B"><use transform="matrix(0.05555555555555555,0,0,0.05555555555555555,0,0)" xlink:href="#aT"/><use transform="matrix(0.05555555555555555,0,0,0.05555555555555555,11.11111111111111,0)" xlink:href="#bd"/><use transform="matrix(0.05555555555555555,0,0,0.05555555555555555,22.22222222222222,0)" xlink:href="#aO"/><use transform="matrix(0.05555555555555555,0,0,0.05555555555555555,33.33333333333333,0)" xlink:href="#aW"/><use transform="matrix(0.05555555555555555,0,0,0.05555555555555555,44.44444444444444,0)" xlink:href="#bf"/><use transform="matrix(0.05555555555555555,0,0,0.05555555555555555,48.83333333333333,0)" xlink:href="#aQ"/></g><g id="C"><use transform="matrix(0.05555555555555555,0,0,0.05555555555555555,0,0)" xlink:href="#aY"/><use transform="matrix(0.05555555555555555,0,0,0.05555555555555555,10,0)" xlink:href="#bd"/><use transform="matrix(0.05555555555555555,0,0,0.05555555555555555,21.11111111111111,0)" xlink:href="#bb"/><use transform="matrix(0.05555555555555555,0,0,0.05555555555555555,37.72222222222222,0)" xlink:href="#ba"/><use transform="matrix(0.05555555555555555,0,0,0.05555555555555555,48.83333333333333,0)" xlink:href="#bf"/><use transform="matrix(0.05555555555555555,0,0,0.05555555555555555,53.222222222222214,0)" xlink:href="#aQ"/><use transform="matrix(0.05555555555555555,0,0,0.05555555555555555,64.33333333333333,0)" xlink:href="#aZ"/><use transform="matrix(0.05555555555555555,0,0,0.05555555555555555,69.88888888888889,0)" xlink:href="#aQ"/><use transform="matrix(0.05555555555555555,0,0,0.05555555555555555,81,0)" xlink:href="#aT"/><use transform="matrix(0.05555555555555555,0,0,0.05555555555555555,92.11111111111111,0)" xlink:href="#bp"/><use transform="matrix(0.05555555555555555,0,0,0.05555555555555555,106.5,0)" xlink:href="#bc"/><use transform="matrix(0.05555555555555555,0,0,0.05555555555555555,110.88888888888889,0)" xlink:href="#bo"/><use transform="matrix(0.05555555555555555,0,0,0.05555555555555555,120.88888888888889,0)" xlink:href="#aQ"/><use transform="matrix(0.05555555555555555,0,0,0.05555555555555555,132,0)" xlink:href="#aP"/><use transform="matrix(0.05555555555555555,0,0,0.05555555555555555,142,0)" xlink:href="#aU"/></g><g id="D"><use transform="matrix(0.05555555555555555,0,0,0.05555555555555555,0,0)" xlink:href="#bc"/><use transform="matrix(0.05555555555555555,0,0,0.05555555555555555,4.388888888888888,0)" xlink:href="#be"/><use transform="matrix(0.05555555555555555,0,0,0.05555555555555555,15.5,0)" xlink:href="#aZ"/></g><g id="E"><use transform="matrix(0.05555555555555555,0,0,0.05555555555555555,0,0)" xlink:href="#aQ"/><use transform="matrix(0.05555555555555555,0,0,0.05555555555555555,11.11111111111111,0)" xlink:href="#bf"/><use transform="matrix(0.05555555555555555,0,0,0.05555555555555555,15.5,0)" xlink:href="#aQ"/><use transform="matrix(0.05555555555555555,0,0,0.05555555555555555,26.61111111111111,0)" xlink:href="#bv"/><use transform="matrix(0.05555555555555555,0,0,0.05555555555555555,36.611111111111114,0)" xlink:href="#bg"/><use transform="matrix(0.05555555555555555,0,0,0.05555555555555555,47.72222222222223,0)" xlink:href="#aZ"/><use transform="matrix(0.05555555555555555,0,0,0.05555555555555555,53.277777777777786,0)" xlink:href="#bc"/><use transform="matrix(0.05555555555555555,0,0,0.05555555555555555,57.66666666666668,0)" xlink:href="#bd"/><use transform="matrix(0.05555555555555555,0,0,0.05555555555555555,68.77777777777779,0)" xlink:href="#be"/><use transform="matrix(0.05555555555555555,0,0,0.05555555555555555,79.8888888888889,0)" xlink:href="#aU"/></g><g id="F"><use transform="matrix(0.05555555555555555,0,0,0.05555555555555555,0,0)" xlink:href="#aP"/><use transform="matrix(0.05555555555555555,0,0,0.05555555555555555,10,0)" xlink:href="#aQ"/><use transform="matrix(0.05555555555555555,0,0,0.05555555555555555,21.11111111111111,0)" xlink:href="#bf"/><use transform="matrix(0.05555555555555555,0,0,0.05555555555555555,25.5,0)" xlink:href="#bm"/><use transform="matrix(0.05555555555555555,0,0,0.05555555555555555,31.05555555555556,0)" xlink:href="#bt"/><use transform="matrix(0.05555555555555555,0,0,0.05555555555555555,42.5,0)" xlink:href="#bc"/><use transform="matrix(0.05555555555555555,0,0,0.05555555555555555,46.888888888888886,0)" xlink:href="#aZ"/><use transform="matrix(0.05555555555555555,0,0,0.05555555555555555,52.44444444444444,0)" xlink:href="#bf"/><use transform="matrix(0.05555555555555555,0,0,0.05555555555555555,56.83333333333333,0)" xlink:href="#aQ"/><use transform="matrix(0.05555555555555555,0,0,0.05555555555555555,67.94444444444444,0)" xlink:href="#aU"/></g><g id="G"><use transform="matrix(0.05555555555555555,0,0,0.05555555555555555,0,0)" xlink:href="#aZ"/><use transform="matrix(0.05555555555555555,0,0,0.05555555555555555,5.555555555555555,0)" xlink:href="#bc"/><use transform="matrix(0.05555555555555555,0,0,0.05555555555555555,9.944444444444443,0)" xlink:href="#aZ"/><use transform="matrix(0.05555555555555555,0,0,0.05555555555555555,15.5,0)" xlink:href="#bf"/><use transform="matrix(0.05555555555555555,0,0,0.05555555555555555,19.888888888888886,0)" xlink:href="#aQ"/></g><path d="M24 0v-248h52v208h133V0H24" id="by"/><path d="M110-194c64 0 96 36 96 99 0 64-35 99-97 99-61 0-95-36-95-99 0-62 34-99 96-99zm-1 164c35 0 45-28 45-65 0-40-10-65-43-65-34 0-45 26-45 65 0 36 10 65 43 65" id="bz"/><path d="M195-6C206 82 75 100 31 46c-4-6-6-13-8-21l49-6c3 16 16 24 34 25 40 0 42-37 40-79-11 22-30 35-61 35-53 0-70-43-70-97 0-56 18-96 73-97 30 0 46 14 59 34l2-30h47zm-90-29c32 0 41-27 41-63 0-35-9-62-40-62-32 0-39 29-40 63 0 36 9 62 39 62" id="bA"/><path d="M135-194c87-1 58 113 63 194h-50c-7-57 23-157-34-157-59 0-34 97-39 157H25l-1-190h47c2 12-1 28 3 38 12-26 28-41 61-42" id="bB"/><g id="H"><use transform="matrix(0.06172839506172839,0,0,0.06172839506172839,0,0)" xlink:href="#by"/><use transform="matrix(0.06172839506172839,0,0,0.06172839506172839,13.518518518518517,0)" xlink:href="#bz"/><use transform="matrix(0.06172839506172839,0,0,0.06172839506172839,27.037037037037035,0)" xlink:href="#bA"/><use transform="matrix(0.06172839506172839,0,0,0.06172839506172839,40.55555555555555,0)" xlink:href="#aL"/><use transform="matrix(0.06172839506172839,0,0,0.06172839506172839,46.72839506172839,0)" xlink:href="#bB"/></g><use transform="matrix(0.06172839506172839,0,0,0.06172839506172839,0,0)" xlink:href="#aJ" id="I"/><g id="J"><use transform="matrix(0.06172839506172839,0,0,0.06172839506172839,0,0)" xlink:href="#aP"/><use transform="matrix(0.06172839506172839,0,0,0.06172839506172839,11.11111111111111,0)" xlink:href="#aQ"/><use transform="matrix(0.06172839506172839,0,0,0.06172839506172839,23.45679012345679,0)" xlink:href="#aY"/><use transform="matrix(0.06172839506172839,0,0,0.06172839506172839,34.5679012345679,0)" xlink:href="#aR"/><use transform="matrix(0.06172839506172839,0,0,0.06172839506172839,41.913580246913575,0)" xlink:href="#aQ"/><use transform="matrix(0.06172839506172839,0,0,0.06172839506172839,54.25925925925925,0)" xlink:href="#aZ"/><use transform="matrix(0.06172839506172839,0,0,0.06172839506172839,60.432098765432094,0)" xlink:href="#bw"/><use transform="matrix(0.06172839506172839,0,0,0.06172839506172839,75.24691358024691,0)" xlink:href="#aQ"/><use transform="matrix(0.06172839506172839,0,0,0.06172839506172839,87.5925925925926,0)" xlink:href="#bq"/><use transform="matrix(0.06172839506172839,0,0,0.06172839506172839,98.70370370370371,0)" xlink:href="#aU"/></g><g id="K"><use transform="matrix(0.06172839506172839,0,0,0.06172839506172839,0,0)" xlink:href="#aP"/><use transform="matrix(0.06172839506172839,0,0,0.06172839506172839,11.11111111111111,0)" xlink:href="#aZ"/><use transform="matrix(0.06172839506172839,0,0,0.06172839506172839,17.28395061728395,0)" xlink:href="#aR"/><use transform="matrix(0.06172839506172839,0,0,0.06172839506172839,24.629629629629626,0)" xlink:href="#bc"/><use transform="matrix(0.06172839506172839,0,0,0.06172839506172839,29.50617283950617,0)" xlink:href="#be"/><use transform="matrix(0.06172839506172839,0,0,0.06172839506172839,41.85185185185185,0)" xlink:href="#bi"/></g><path d="M169-182c-1-43-94-46-97-3 18 66 151 10 154 114 3 95-165 93-204 36-6-8-10-19-12-30l50-8c3 46 112 56 116 5-17-69-150-10-154-114-4-87 153-88 188-35 5 8 8 18 10 28" id="bC"/><path d="M115-3C79 11 28 4 28-45v-112H4v-33h27l15-45h31v45h36v33H77v99c-1 23 16 31 38 25v30" id="bD"/><g id="L"><use transform="matrix(0.06172839506172839,0,0,0.06172839506172839,0,0)" xlink:href="#bC"/><use transform="matrix(0.06172839506172839,0,0,0.06172839506172839,14.814814814814813,0)" xlink:href="#aH"/><use transform="matrix(0.06172839506172839,0,0,0.06172839506172839,27.160493827160494,0)" xlink:href="#bD"/><use transform="matrix(0.06172839506172839,0,0,0.06172839506172839,34.50617283950617,0)" xlink:href="#bD"/><use transform="matrix(0.06172839506172839,0,0,0.06172839506172839,41.85185185185185,0)" xlink:href="#aL"/><use transform="matrix(0.06172839506172839,0,0,0.06172839506172839,48.02469135802469,0)" xlink:href="#bB"/><use transform="matrix(0.06172839506172839,0,0,0.06172839506172839,61.54320987654321,0)" xlink:href="#bA"/><use transform="matrix(0.06172839506172839,0,0,0.06172839506172839,75.06172839506172,0)" xlink:href="#aG"/></g><path d="M67-125c0 53 21 87 73 88 37 1 54-22 65-47l45 17C233-25 199 4 140 4 58 4 20-42 15-125 8-235 124-281 211-232c18 10 29 29 36 50l-46 12c-8-25-30-41-62-41-52 0-71 34-72 86" id="bE"/><path d="M190-63c-7 42-38 67-86 67-59 0-84-38-90-98-12-110 154-137 174-36l-49 2c-2-19-15-32-35-32-30 0-35 28-38 64-6 74 65 87 74 30" id="bF"/><path d="M114-157C55-157 80-60 75 0H25v-261h50l-1 109c12-26 28-41 61-42 86-1 58 113 63 194h-50c-7-57 23-157-34-157" id="bG"/><g id="M"><use transform="matrix(0.06172839506172839,0,0,0.06172839506172839,0,0)" xlink:href="#bE"/><use transform="matrix(0.06172839506172839,0,0,0.06172839506172839,15.987654320987653,0)" xlink:href="#aN"/><use transform="matrix(0.06172839506172839,0,0,0.06172839506172839,28.333333333333332,0)" xlink:href="#bF"/><use transform="matrix(0.06172839506172839,0,0,0.06172839506172839,40.67901234567901,0)" xlink:href="#bG"/><use transform="matrix(0.06172839506172839,0,0,0.06172839506172839,54.19753086419753,0)" xlink:href="#aH"/></g><g id="N"><use transform="matrix(0.06172839506172839,0,0,0.06172839506172839,0,0)" xlink:href="#be"/><use transform="matrix(0.06172839506172839,0,0,0.06172839506172839,12.345679012345679,0)" xlink:href="#bd"/><use transform="matrix(0.06172839506172839,0,0,0.06172839506172839,24.691358024691358,0)" xlink:href="#aZ"/><use transform="matrix(0.06172839506172839,0,0,0.06172839506172839,30.864197530864196,0)" xlink:href="#bc"/><use transform="matrix(0.06172839506172839,0,0,0.06172839506172839,35.74074074074074,0)" xlink:href="#bm"/><use transform="matrix(0.06172839506172839,0,0,0.06172839506172839,41.91358024691358,0)" xlink:href="#bc"/><use transform="matrix(0.06172839506172839,0,0,0.06172839506172839,46.79012345679013,0)" xlink:href="#aY"/><use transform="matrix(0.06172839506172839,0,0,0.06172839506172839,57.90123456790124,0)" xlink:href="#bg"/><use transform="matrix(0.06172839506172839,0,0,0.06172839506172839,70.24691358024693,0)" xlink:href="#aZ"/><use transform="matrix(0.06172839506172839,0,0,0.06172839506172839,76.41975308641976,0)" xlink:href="#bc"/><use transform="matrix(0.06172839506172839,0,0,0.06172839506172839,81.2962962962963,0)" xlink:href="#bd"/><use transform="matrix(0.06172839506172839,0,0,0.06172839506172839,93.64197530864199,0)" xlink:href="#be"/><use transform="matrix(0.06172839506172839,0,0,0.06172839506172839,105.98765432098767,0)" xlink:href="#aP"/></g><path d="M88-194c31-1 46 15 58 34l-1-101h50l1 261h-48c-2-10 0-23-3-31C134-8 116 4 84 4 32 4 16-41 15-95c0-56 19-97 73-99zm17 164c33 0 40-30 41-66 1-37-9-64-41-64s-38 30-39 65c0 43 13 65 39 65" id="bH"/><path d="M136-208V0H84v-208H4v-40h212v40h-80" id="bI"/><path d="M25 0v-261h50V0H25" id="bJ"/><g id="O"><use transform="matrix(0.06172839506172839,0,0,0.06172839506172839,0,0)" xlink:href="#aK"/><use transform="matrix(0.06172839506172839,0,0,0.06172839506172839,13.518518518518517,0)" xlink:href="#aL"/><use transform="matrix(0.06172839506172839,0,0,0.06172839506172839,19.691358024691358,0)" xlink:href="#bB"/><use transform="matrix(0.06172839506172839,0,0,0.06172839506172839,33.20987654320987,0)" xlink:href="#aL"/><use transform="matrix(0.06172839506172839,0,0,0.06172839506172839,39.382716049382715,0)" xlink:href="#aG"/><use transform="matrix(0.06172839506172839,0,0,0.06172839506172839,51.72839506172839,0)" xlink:href="#bG"/><use transform="matrix(0.06172839506172839,0,0,0.06172839506172839,65.24691358024691,0)" xlink:href="#aH"/><use transform="matrix(0.06172839506172839,0,0,0.06172839506172839,77.5925925925926,0)" xlink:href="#bH"/><use transform="matrix(0.06172839506172839,0,0,0.06172839506172839,91.11111111111111,0)" xlink:href="#bI"/><use transform="matrix(0.06172839506172839,0,0,0.06172839506172839,103.39506172839506,0)" xlink:href="#aI"/><use transform="matrix(0.06172839506172839,0,0,0.06172839506172839,112.03703703703704,0)" xlink:href="#aN"/><use transform="matrix(0.06172839506172839,0,0,0.06172839506172839,124.38271604938272,0)" xlink:href="#aL"/><use transform="matrix(0.06172839506172839,0,0,0.06172839506172839,130.55555555555557,0)" xlink:href="#bJ"/></g><g id="P"><use transform="matrix(0.06172839506172839,0,0,0.06172839506172839,0,0)" xlink:href="#aZ"/><use transform="matrix(0.06172839506172839,0,0,0.06172839506172839,6.172839506172839,0)" xlink:href="#aR"/><use transform="matrix(0.06172839506172839,0,0,0.06172839506172839,13.518518518518519,0)" xlink:href="#bg"/><use transform="matrix(0.06172839506172839,0,0,0.06172839506172839,25.864197530864196,0)" xlink:href="#bc"/><use transform="matrix(0.06172839506172839,0,0,0.06172839506172839,30.74074074074074,0)" xlink:href="#bf"/><use transform="matrix(0.06172839506172839,0,0,0.06172839506172839,35.617283950617285,0)" xlink:href="#aU"/></g><g id="Q"><use transform="matrix(0.06172839506172839,0,0,0.06172839506172839,0,0)" xlink:href="#aZ"/><use transform="matrix(0.06172839506172839,0,0,0.06172839506172839,6.172839506172839,0)" xlink:href="#aR"/><use transform="matrix(0.06172839506172839,0,0,0.06172839506172839,13.518518518518519,0)" xlink:href="#bg"/><use transform="matrix(0.06172839506172839,0,0,0.06172839506172839,25.864197530864196,0)" xlink:href="#aY"/><use transform="matrix(0.06172839506172839,0,0,0.06172839506172839,36.9753086419753,0)" xlink:href="#bo"/><use transform="matrix(0.06172839506172839,0,0,0.06172839506172839,48.08641975308642,0)" xlink:href="#aS"/><use transform="matrix(0.06172839506172839,0,0,0.06172839506172839,54.25925925925926,0)" xlink:href="#aT"/></g><g id="R"><use transform="matrix(0.06172839506172839,0,0,0.06172839506172839,0,0)" xlink:href="#aP"/><use transform="matrix(0.06172839506172839,0,0,0.06172839506172839,11.11111111111111,0)" xlink:href="#aZ"/><use transform="matrix(0.06172839506172839,0,0,0.06172839506172839,17.28395061728395,0)" xlink:href="#bg"/><use transform="matrix(0.06172839506172839,0,0,0.06172839506172839,29.629629629629626,0)" xlink:href="#aR"/><use transform="matrix(0.06172839506172839,0,0,0.06172839506172839,36.9753086419753,0)" xlink:href="#aZ"/><use transform="matrix(0.06172839506172839,0,0,0.06172839506172839,43.148148148148145,0)" xlink:href="#bn"/><use transform="matrix(0.06172839506172839,0,0,0.06172839506172839,59.1358024691358,0)" xlink:href="#bg"/><use transform="matrix(0.06172839506172839,0,0,0.06172839506172839,71.48148148148148,0)" xlink:href="#aZ"/><use transform="matrix(0.06172839506172839,0,0,0.06172839506172839,77.65432098765432,0)" xlink:href="#aQ"/><use transform="matrix(0.06172839506172839,0,0,0.06172839506172839,90,0)" xlink:href="#aU"/></g><g id="S"><use transform="matrix(0.06172839506172839,0,0,0.06172839506172839,0,0)" xlink:href="#aT"/><use transform="matrix(0.06172839506172839,0,0,0.06172839506172839,12.345679012345679,0)" xlink:href="#bg"/><use transform="matrix(0.06172839506172839,0,0,0.06172839506172839,24.691358024691358,0)" xlink:href="#aZ"/><use transform="matrix(0.06172839506172839,0,0,0.06172839506172839,30.864197530864196,0)" xlink:href="#aQ"/></g><g id="T"><use transform="matrix(0.06172839506172839,0,0,0.06172839506172839,0,0)" xlink:href="#aT"/><use transform="matrix(0.06172839506172839,0,0,0.06172839506172839,12.345679012345679,0)" xlink:href="#aO"/><use transform="matrix(0.06172839506172839,0,0,0.06172839506172839,24.691358024691358,0)" xlink:href="#aR"/><use transform="matrix(0.06172839506172839,0,0,0.06172839506172839,32.03703703703704,0)" xlink:href="#bg"/><use transform="matrix(0.06172839506172839,0,0,0.06172839506172839,44.382716049382715,0)" xlink:href="#aZ"/><use transform="matrix(0.06172839506172839,0,0,0.06172839506172839,50.55555555555556,0)" xlink:href="#bc"/><use transform="matrix(0.06172839506172839,0,0,0.06172839506172839,55.4320987654321,0)" xlink:href="#bd"/><use transform="matrix(0.06172839506172839,0,0,0.06172839506172839,67.77777777777779,0)" xlink:href="#be"/><use transform="matrix(0.06172839506172839,0,0,0.06172839506172839,80.12345679012347,0)" xlink:href="#aU"/></g><path d="M87 75C49 33 22-17 22-94c0-76 28-126 65-167h31c-38 41-64 92-64 168S80 34 118 75H87" id="bK"/><g id="U"><use transform="matrix(0.06172839506172839,0,0,0.06172839506172839,0,0)" xlink:href="#bc"/><use transform="matrix(0.06172839506172839,0,0,0.06172839506172839,4.876543209876543,0)" xlink:href="#be"/><use transform="matrix(0.06172839506172839,0,0,0.06172839506172839,17.22222222222222,0)" xlink:href="#aZ"/><use transform="matrix(0.06172839506172839,0,0,0.06172839506172839,23.39506172839506,0)" xlink:href="#bK"/><use transform="matrix(0.06172839506172839,0,0,0.06172839506172839,30.74074074074074,0)" xlink:href="#bc"/><use transform="matrix(0.06172839506172839,0,0,0.06172839506172839,35.617283950617285,0)" xlink:href="#be"/></g><path d="M33-261c38 41 65 92 65 168S71 34 33 75H2C39 34 66-17 66-93S39-220 2-261h31" id="bL"/><g id="V"><use transform="matrix(0.06172839506172839,0,0,0.06172839506172839,0,0)" xlink:href="#bb"/><use transform="matrix(0.06172839506172839,0,0,0.06172839506172839,18.456790123456788,0)" xlink:href="#bc"/><use transform="matrix(0.06172839506172839,0,0,0.06172839506172839,23.33333333333333,0)" xlink:href="#be"/><use transform="matrix(0.06172839506172839,0,0,0.06172839506172839,35.679012345679006,0)" xlink:href="#bL"/></g><g id="X"><use transform="matrix(0.06172839506172839,0,0,0.06172839506172839,0,0)" xlink:href="#bI"/><use transform="matrix(0.06172839506172839,0,0,0.06172839506172839,12.28395061728395,0)" xlink:href="#aI"/><use transform="matrix(0.06172839506172839,0,0,0.06172839506172839,20.925925925925924,0)" xlink:href="#aN"/><use transform="matrix(0.06172839506172839,0,0,0.06172839506172839,33.2716049382716,0)" xlink:href="#aL"/><use transform="matrix(0.06172839506172839,0,0,0.06172839506172839,39.44444444444444,0)" xlink:href="#bJ"/></g><g id="Y"><use transform="matrix(0.06172839506172839,0,0,0.06172839506172839,0,0)" xlink:href="#aZ"/><use transform="matrix(0.06172839506172839,0,0,0.06172839506172839,6.172839506172839,0)" xlink:href="#aR"/><use transform="matrix(0.06172839506172839,0,0,0.06172839506172839,13.518518518518519,0)" xlink:href="#bg"/><use transform="matrix(0.06172839506172839,0,0,0.06172839506172839,25.864197530864196,0)" xlink:href="#aY"/><use transform="matrix(0.06172839506172839,0,0,0.06172839506172839,36.9753086419753,0)" xlink:href="#bo"/><use transform="matrix(0.06172839506172839,0,0,0.06172839506172839,48.08641975308642,0)" xlink:href="#aS"/><use transform="matrix(0.06172839506172839,0,0,0.06172839506172839,54.25925925925926,0)" xlink:href="#aT"/><use transform="matrix(0.06172839506172839,0,0,0.06172839506172839,66.60493827160494,0)" xlink:href="#aU"/></g><g id="Z"><use transform="matrix(0.06172839506172839,0,0,0.06172839506172839,0,0)" xlink:href="#bf"/><use transform="matrix(0.06172839506172839,0,0,0.06172839506172839,4.876543209876543,0)" xlink:href="#bd"/><use transform="matrix(0.06172839506172839,0,0,0.06172839506172839,17.22222222222222,0)" xlink:href="#be"/><use transform="matrix(0.06172839506172839,0,0,0.06172839506172839,29.5679012345679,0)" xlink:href="#bi"/></g><g id="aa"><use transform="matrix(0.06172839506172839,0,0,0.06172839506172839,0,0)" xlink:href="#aZ"/><use transform="matrix(0.06172839506172839,0,0,0.06172839506172839,6.172839506172839,0)" xlink:href="#aR"/><use transform="matrix(0.06172839506172839,0,0,0.06172839506172839,13.518518518518519,0)" xlink:href="#bg"/><use transform="matrix(0.06172839506172839,0,0,0.06172839506172839,25.864197530864196,0)" xlink:href="#bc"/><use transform="matrix(0.06172839506172839,0,0,0.06172839506172839,30.74074074074074,0)" xlink:href="#bf"/><use transform="matrix(0.06172839506172839,0,0,0.06172839506172839,35.617283950617285,0)" xlink:href="#bn"/><use transform="matrix(0.06172839506172839,0,0,0.06172839506172839,51.60493827160494,0)" xlink:href="#aQ"/><use transform="matrix(0.06172839506172839,0,0,0.06172839506172839,63.95061728395061,0)" xlink:href="#aZ"/><use transform="matrix(0.06172839506172839,0,0,0.06172839506172839,70.12345679012346,0)" xlink:href="#bg"/><use transform="matrix(0.06172839506172839,0,0,0.06172839506172839,82.46913580246914,0)" xlink:href="#bc"/><use transform="matrix(0.06172839506172839,0,0,0.06172839506172839,87.34567901234568,0)" xlink:href="#bf"/><use transform="matrix(0.06172839506172839,0,0,0.06172839506172839,92.22222222222223,0)" xlink:href="#aP"/><use transform="matrix(0.06172839506172839,0,0,0.06172839506172839,103.33333333333334,0)" xlink:href="#aU"/></g><g id="ab"><use transform="matrix(0.06172839506172839,0,0,0.06172839506172839,0,0)" xlink:href="#aT"/><use transform="matrix(0.06172839506172839,0,0,0.06172839506172839,12.345679012345679,0)" xlink:href="#bc"/><use transform="matrix(0.06172839506172839,0,0,0.06172839506172839,17.22222222222222,0)" xlink:href="#aY"/><use transform="matrix(0.06172839506172839,0,0,0.06172839506172839,28.333333333333332,0)" xlink:href="#aZ"/></g><g id="ac"><use transform="matrix(0.06172839506172839,0,0,0.06172839506172839,0,0)" xlink:href="#ba"/><use transform="matrix(0.06172839506172839,0,0,0.06172839506172839,12.345679012345679,0)" xlink:href="#bk"/><use transform="matrix(0.06172839506172839,0,0,0.06172839506172839,24.691358024691358,0)" xlink:href="#bd"/><use transform="matrix(0.06172839506172839,0,0,0.06172839506172839,37.03703703703704,0)" xlink:href="#aZ"/><use transform="matrix(0.06172839506172839,0,0,0.06172839506172839,43.20987654320988,0)" xlink:href="#bd"/><use transform="matrix(0.06172839506172839,0,0,0.06172839506172839,55.55555555555556,0)" xlink:href="#aP"/><use transform="matrix(0.06172839506172839,0,0,0.06172839506172839,66.66666666666667,0)" xlink:href="#aU"/></g><g id="ad"><use transform="matrix(0.06172839506172839,0,0,0.06172839506172839,0,0)" xlink:href="#br"/><use transform="matrix(0.06172839506172839,0,0,0.06172839506172839,12.345679012345679,0)" xlink:href="#bc"/><use transform="matrix(0.06172839506172839,0,0,0.06172839506172839,17.22222222222222,0)" xlink:href="#aP"/><use transform="matrix(0.06172839506172839,0,0,0.06172839506172839,28.333333333333332,0)" xlink:href="#aZ"/><use transform="matrix(0.06172839506172839,0,0,0.06172839506172839,34.50617283950617,0)" xlink:href="#bs"/><use transform="matrix(0.06172839506172839,0,0,0.06172839506172839,47.46913580246913,0)" xlink:href="#bc"/><use transform="matrix(0.06172839506172839,0,0,0.06172839506172839,52.34567901234568,0)" xlink:href="#bb"/><use transform="matrix(0.06172839506172839,0,0,0.06172839506172839,70.80246913580247,0)" xlink:href="#bg"/><use transform="matrix(0.06172839506172839,0,0,0.06172839506172839,83.14814814814815,0)" xlink:href="#bi"/><use transform="matrix(0.06172839506172839,0,0,0.06172839506172839,95.49382716049384,0)" xlink:href="#aQ"/><use transform="matrix(0.06172839506172839,0,0,0.06172839506172839,107.83950617283952,0)" xlink:href="#bu"/></g><path d="M141 0L90-78 38 0H4l68-98-65-92h35l48 74 47-74h35l-64 92 68 98h-35" id="bM"/><g id="ae"><use transform="matrix(0.05925925925925927,0,0,0.05925925925925927,0,0)" xlink:href="#bi"/><use transform="matrix(0.05925925925925927,0,0,0.05925925925925927,11.851851851851853,0)" xlink:href="#ba"/><use transform="matrix(0.05925925925925927,0,0,0.05925925925925927,23.703703703703706,0)" xlink:href="#bM"/><use transform="matrix(0.05925925925925927,0,0,0.05925925925925927,34.370370370370374,0)" xlink:href="#aU"/></g><path d="M-5 72V49h209v23H-5" id="bN"/><g id="af"><use transform="matrix(0.05925925925925927,0,0,0.05925925925925927,0,0)" xlink:href="#bi"/><use transform="matrix(0.05925925925925927,0,0,0.05925925925925927,11.851851851851853,0)" xlink:href="#ba"/><use transform="matrix(0.05925925925925927,0,0,0.05925925925925927,23.703703703703706,0)" xlink:href="#bM"/><use transform="matrix(0.05925925925925927,0,0,0.05925925925925927,34.370370370370374,0)" xlink:href="#bN"/><use transform="matrix(0.05925925925925927,0,0,0.05925925925925927,46.22222222222223,0)" xlink:href="#bm"/><use transform="matrix(0.05925925925925927,0,0,0.05925925925925927,52.14814814814815,0)" xlink:href="#bc"/><use transform="matrix(0.05925925925925927,0,0,0.05925925925925927,56.829629629629636,0)" xlink:href="#bf"/><use transform="matrix(0.05925925925925927,0,0,0.05925925925925927,61.51111111111112,0)" xlink:href="#aQ"/></g><g id="ag"><use transform="matrix(0.05925925925925927,0,0,0.05925925925925927,0,0)" xlink:href="#aO"/><use transform="matrix(0.05925925925925927,0,0,0.05925925925925927,11.851851851851853,0)" xlink:href="#ba"/><use transform="matrix(0.05925925925925927,0,0,0.05925925925925927,23.703703703703706,0)" xlink:href="#bf"/><use transform="matrix(0.05925925925925927,0,0,0.05925925925925927,28.385185185185186,0)" xlink:href="#bd"/><use transform="matrix(0.05925925925925927,0,0,0.05925925925925927,40.23703703703704,0)" xlink:href="#bg"/><use transform="matrix(0.05925925925925927,0,0,0.05925925925925927,52.088888888888896,0)" xlink:href="#aT"/><use transform="matrix(0.05925925925925927,0,0,0.05925925925925927,63.94074074074075,0)" xlink:href="#bn"/><use transform="matrix(0.05925925925925927,0,0,0.05925925925925927,79.2888888888889,0)" xlink:href="#bg"/><use transform="matrix(0.05925925925925927,0,0,0.05925925925925927,91.14074074074075,0)" xlink:href="#aZ"/><use transform="matrix(0.05925925925925927,0,0,0.05925925925925927,97.06666666666668,0)" xlink:href="#aQ"/><use transform="matrix(0.05925925925925927,0,0,0.05925925925925927,108.91851851851852,0)" xlink:href="#aU"/></g><g id="ah"><use transform="matrix(0.05925925925925927,0,0,0.05925925925925927,0,0)" xlink:href="#aZ"/><use transform="matrix(0.05925925925925927,0,0,0.05925925925925927,5.9259259259259265,0)" xlink:href="#bc"/><use transform="matrix(0.05925925925925927,0,0,0.05925925925925927,10.607407407407408,0)" xlink:href="#bb"/><use transform="matrix(0.05925925925925927,0,0,0.05925925925925927,28.32592592592593,0)" xlink:href="#aQ"/></g><path d="M160-131c35 5 61 23 61 61C221 17 115-2 30 0v-248c76 3 177-17 177 60 0 33-19 50-47 57zm-97-11c50-1 110 9 110-42 0-47-63-36-110-37v79zm0 115c55-2 124 14 124-45 0-56-70-42-124-44v89" id="bO"/><g id="ai"><use transform="matrix(0.05925925925925927,0,0,0.05925925925925927,0,0)" xlink:href="#aO"/><use transform="matrix(0.05925925925925927,0,0,0.05925925925925927,11.851851851851853,0)" xlink:href="#ba"/><use transform="matrix(0.05925925925925927,0,0,0.05925925925925927,23.703703703703706,0)" xlink:href="#bf"/><use transform="matrix(0.05925925925925927,0,0,0.05925925925925927,28.385185185185186,0)" xlink:href="#bd"/><use transform="matrix(0.05925925925925927,0,0,0.05925925925925927,40.23703703703704,0)" xlink:href="#bg"/><use transform="matrix(0.05925925925925927,0,0,0.05925925925925927,52.088888888888896,0)" xlink:href="#aT"/><use transform="matrix(0.05925925925925927,0,0,0.05925925925925927,63.94074074074075,0)" xlink:href="#bO"/><use transform="matrix(0.05925925925925927,0,0,0.05925925925925927,78.16296296296298,0)" xlink:href="#bq"/><use transform="matrix(0.05925925925925927,0,0,0.05925925925925927,88.82962962962965,0)" xlink:href="#aU"/></g><g id="aj"><use transform="matrix(0.05925925925925927,0,0,0.05925925925925927,0,0)" xlink:href="#aO"/><use transform="matrix(0.05925925925925927,0,0,0.05925925925925927,11.851851851851853,0)" xlink:href="#aP"/><use transform="matrix(0.05925925925925927,0,0,0.05925925925925927,22.51851851851852,0)" xlink:href="#aQ"/><use transform="matrix(0.05925925925925927,0,0,0.05925925925925927,34.370370370370374,0)" xlink:href="#aR"/></g><g id="ak"><use transform="matrix(0.05925925925925927,0,0,0.05925925925925927,0,0)" xlink:href="#aP"/><use transform="matrix(0.05925925925925927,0,0,0.05925925925925927,10.666666666666668,0)" xlink:href="#aY"/><use transform="matrix(0.05925925925925927,0,0,0.05925925925925927,21.333333333333336,0)" xlink:href="#bd"/><use transform="matrix(0.05925925925925927,0,0,0.05925925925925927,33.18518518518519,0)" xlink:href="#aR"/><use transform="matrix(0.05925925925925927,0,0,0.05925925925925927,40.23703703703704,0)" xlink:href="#aQ"/><use transform="matrix(0.05925925925925927,0,0,0.05925925925925927,52.088888888888896,0)" xlink:href="#aU"/></g><g id="al"><use transform="matrix(0.05925925925925927,0,0,0.05925925925925927,0,0)" xlink:href="#aT"/><use transform="matrix(0.05925925925925927,0,0,0.05925925925925927,11.851851851851853,0)" xlink:href="#bd"/><use transform="matrix(0.05925925925925927,0,0,0.05925925925925927,23.703703703703706,0)" xlink:href="#aO"/><use transform="matrix(0.05925925925925927,0,0,0.05925925925925927,35.55555555555556,0)" xlink:href="#aW"/><use transform="matrix(0.05925925925925927,0,0,0.05925925925925927,47.40740740740741,0)" xlink:href="#bf"/><use transform="matrix(0.05925925925925927,0,0,0.05925925925925927,52.088888888888896,0)" xlink:href="#aQ"/></g><g id="am"><use transform="matrix(0.05925925925925927,0,0,0.05925925925925927,0,0)" xlink:href="#bf"/><use transform="matrix(0.05925925925925927,0,0,0.05925925925925927,4.681481481481482,0)" xlink:href="#bc"/><use transform="matrix(0.05925925925925927,0,0,0.05925925925925927,9.362962962962964,0)" xlink:href="#bo"/><use transform="matrix(0.05925925925925927,0,0,0.05925925925925927,20.029629629629632,0)" xlink:href="#aQ"/><use transform="matrix(0.05925925925925927,0,0,0.05925925925925927,31.881481481481487,0)" xlink:href="#aP"/><use transform="matrix(0.05925925925925927,0,0,0.05925925925925927,42.54814814814816,0)" xlink:href="#aU"/></g><g id="an"><use transform="matrix(0.05925925925925927,0,0,0.05925925925925927,0,0)" xlink:href="#bc"/><use transform="matrix(0.05925925925925927,0,0,0.05925925925925927,4.681481481481482,0)" xlink:href="#be"/><use transform="matrix(0.05925925925925927,0,0,0.05925925925925927,16.533333333333335,0)" xlink:href="#aZ"/></g><g id="ao"><use transform="matrix(0.05925925925925927,0,0,0.05925925925925927,0,0)" xlink:href="#aY"/><use transform="matrix(0.05925925925925927,0,0,0.05925925925925927,10.666666666666668,0)" xlink:href="#bd"/><use transform="matrix(0.05925925925925927,0,0,0.05925925925925927,22.51851851851852,0)" xlink:href="#bb"/><use transform="matrix(0.05925925925925927,0,0,0.05925925925925927,40.23703703703704,0)" xlink:href="#bb"/><use transform="matrix(0.05925925925925927,0,0,0.05925925925925927,57.95555555555556,0)" xlink:href="#aQ"/><use transform="matrix(0.05925925925925927,0,0,0.05925925925925927,69.80740740740741,0)" xlink:href="#be"/><use transform="matrix(0.05925925925925927,0,0,0.05925925925925927,81.65925925925926,0)" xlink:href="#aZ"/><use transform="matrix(0.05925925925925927,0,0,0.05925925925925927,87.58518518518518,0)" xlink:href="#aU"/></g><g id="ap"><use transform="matrix(0.05925925925925927,0,0,0.05925925925925927,0,0)" xlink:href="#bc"/><use transform="matrix(0.05925925925925927,0,0,0.05925925925925927,4.681481481481482,0)" xlink:href="#be"/><use transform="matrix(0.05925925925925927,0,0,0.05925925925925927,16.533333333333335,0)" xlink:href="#aZ"/></g><path d="M145-31C134-9 116 4 85 4 32 4 16-35 15-94c0-59 17-99 70-100 32-1 48 14 60 33 0-11-1-24 2-32h30l-1 268h-32zM93-21c41 0 51-33 51-76s-8-73-50-73c-40 0-46 35-46 75s5 74 45 74" id="bP"/><path d="M233-177c-1 41-23 64-60 70L243 0h-38l-65-103H63V0H30v-248c88 3 205-21 203 71zM63-129c60-2 137 13 137-47 0-61-80-42-137-45v92" id="bQ"/><g id="aq"><use transform="matrix(0.05925925925925927,0,0,0.05925925925925927,0,0)" xlink:href="#bb"/><use transform="matrix(0.05925925925925927,0,0,0.05925925925925927,17.718518518518522,0)" xlink:href="#bd"/><use transform="matrix(0.05925925925925927,0,0,0.05925925925925927,29.570370370370377,0)" xlink:href="#aP"/><use transform="matrix(0.05925925925925927,0,0,0.05925925925925927,40.23703703703704,0)" xlink:href="#bP"/><use transform="matrix(0.05925925925925927,0,0,0.05925925925925927,52.088888888888896,0)" xlink:href="#aO"/><use transform="matrix(0.05925925925925927,0,0,0.05925925925925927,63.94074074074075,0)" xlink:href="#bc"/><use transform="matrix(0.05925925925925927,0,0,0.05925925925925927,68.62222222222223,0)" xlink:href="#aZ"/><use transform="matrix(0.05925925925925927,0,0,0.05925925925925927,74.54814814814816,0)" xlink:href="#bd"/><use transform="matrix(0.05925925925925927,0,0,0.05925925925925927,86.4,0)" xlink:href="#bQ"/><use transform="matrix(0.05925925925925927,0,0,0.05925925925925927,101.74814814814816,0)" xlink:href="#bg"/><use transform="matrix(0.05925925925925927,0,0,0.05925925925925927,113.60000000000001,0)" xlink:href="#aZ"/><use transform="matrix(0.05925925925925927,0,0,0.05925925925925927,119.52592592592593,0)" xlink:href="#aQ"/><use transform="matrix(0.05925925925925927,0,0,0.05925925925925927,131.3777777777778,0)" xlink:href="#aU"/></g><g id="ar"><use transform="matrix(0.05925925925925927,0,0,0.05925925925925927,0,0)" xlink:href="#aT"/><use transform="matrix(0.05925925925925927,0,0,0.05925925925925927,11.851851851851853,0)" xlink:href="#bd"/><use transform="matrix(0.05925925925925927,0,0,0.05925925925925927,23.703703703703706,0)" xlink:href="#aO"/><use transform="matrix(0.05925925925925927,0,0,0.05925925925925927,35.55555555555556,0)" xlink:href="#aW"/><use transform="matrix(0.05925925925925927,0,0,0.05925925925925927,47.40740740740741,0)" xlink:href="#bf"/><use transform="matrix(0.05925925925925927,0,0,0.05925925925925927,52.088888888888896,0)" xlink:href="#aQ"/></g><g id="as"><use transform="matrix(0.06172839506172839,0,0,0.06172839506172839,0,0)" xlink:href="#bI"/><use transform="matrix(0.06172839506172839,0,0,0.06172839506172839,13.08641975308642,0)" xlink:href="#aL"/><use transform="matrix(0.06172839506172839,0,0,0.06172839506172839,19.25925925925926,0)" xlink:href="#bD"/><use transform="matrix(0.06172839506172839,0,0,0.06172839506172839,26.604938271604937,0)" xlink:href="#bJ"/><use transform="matrix(0.06172839506172839,0,0,0.06172839506172839,32.77777777777778,0)" xlink:href="#aH"/><use transform="matrix(0.06172839506172839,0,0,0.06172839506172839,45.123456790123456,0)" xlink:href="#aG"/></g><g id="at"><use transform="matrix(0.06172839506172839,0,0,0.06172839506172839,0,0)" xlink:href="#bf"/><use transform="matrix(0.06172839506172839,0,0,0.06172839506172839,4.876543209876543,0)" xlink:href="#aQ"/><use transform="matrix(0.06172839506172839,0,0,0.06172839506172839,17.22222222222222,0)" xlink:href="#bv"/><use transform="matrix(0.06172839506172839,0,0,0.06172839506172839,28.333333333333332,0)" xlink:href="#aQ"/><use transform="matrix(0.06172839506172839,0,0,0.06172839506172839,40.67901234567901,0)" xlink:href="#bf"/><use transform="matrix(0.06172839506172839,0,0,0.06172839506172839,45.55555555555556,0)" xlink:href="#aP"/><use transform="matrix(0.06172839506172839,0,0,0.06172839506172839,56.66666666666667,0)" xlink:href="#aU"/></g><g id="au"><use transform="matrix(0.06172839506172839,0,0,0.06172839506172839,0,0)" xlink:href="#bn"/><use transform="matrix(0.06172839506172839,0,0,0.06172839506172839,15.987654320987653,0)" xlink:href="#bc"/><use transform="matrix(0.06172839506172839,0,0,0.06172839506172839,20.864197530864196,0)" xlink:href="#aY"/><use transform="matrix(0.06172839506172839,0,0,0.06172839506172839,31.975308641975307,0)" xlink:href="#aZ"/></g><path d="M275 0h-61l-44-196L126 0H64L0-248h53L97-49l45-199h58l43 199 44-199h52" id="bR"/><g id="av"><use transform="matrix(0.06172839506172839,0,0,0.06172839506172839,0,0)" xlink:href="#bR"/><use transform="matrix(0.06172839506172839,0,0,0.06172839506172839,20.493827160493826,0)" xlink:href="#aH"/><use transform="matrix(0.06172839506172839,0,0,0.06172839506172839,32.839506172839506,0)" xlink:href="#aN"/><use transform="matrix(0.06172839506172839,0,0,0.06172839506172839,45.18518518518518,0)" xlink:href="#bD"/><use transform="matrix(0.06172839506172839,0,0,0.06172839506172839,52.53086419753086,0)" xlink:href="#bG"/><use transform="matrix(0.06172839506172839,0,0,0.06172839506172839,66.04938271604938,0)" xlink:href="#aH"/><use transform="matrix(0.06172839506172839,0,0,0.06172839506172839,78.39506172839506,0)" xlink:href="#aI"/><use transform="matrix(0.06172839506172839,0,0,0.06172839506172839,87.03703703703704,0)" xlink:href="#aJ"/></g><path d="M199 0l-22-63H83L61 0H9l90-248h61L250 0h-51zm-33-102l-36-108c-10 38-24 72-36 108h72" id="bS"/><path d="M24-248c93 1 206-16 204 79-1 75-69 88-152 82V0H24v-248zm52 121c47 0 100 7 100-41 0-47-54-39-100-39v80" id="bT"/><path d="M24 0v-248h52V0H24" id="bU"/><g id="aw"><use transform="matrix(0.06172839506172839,0,0,0.06172839506172839,0,0)" xlink:href="#bS"/><use transform="matrix(0.06172839506172839,0,0,0.06172839506172839,15.987654320987653,0)" xlink:href="#bT"/><use transform="matrix(0.06172839506172839,0,0,0.06172839506172839,30.80246913580247,0)" xlink:href="#bU"/></g><g id="ax"><use transform="matrix(0.06172839506172839,0,0,0.06172839506172839,0,0)" xlink:href="#bd"/><use transform="matrix(0.06172839506172839,0,0,0.06172839506172839,12.345679012345679,0)" xlink:href="#aO"/><use transform="matrix(0.06172839506172839,0,0,0.06172839506172839,24.691358024691358,0)" xlink:href="#aZ"/></g><g id="ay"><use transform="matrix(0.06172839506172839,0,0,0.06172839506172839,0,0)" xlink:href="#aP"/><use transform="matrix(0.06172839506172839,0,0,0.06172839506172839,11.11111111111111,0)" xlink:href="#bc"/><use transform="matrix(0.06172839506172839,0,0,0.06172839506172839,15.987654320987653,0)" xlink:href="#aT"/><use transform="matrix(0.06172839506172839,0,0,0.06172839506172839,28.333333333333332,0)" xlink:href="#aQ"/></g><g id="az"><use transform="matrix(0.06172839506172839,0,0,0.06172839506172839,0,0)" xlink:href="#aT"/><use transform="matrix(0.06172839506172839,0,0,0.06172839506172839,12.345679012345679,0)" xlink:href="#bg"/><use transform="matrix(0.06172839506172839,0,0,0.06172839506172839,24.691358024691358,0)" xlink:href="#aZ"/><use transform="matrix(0.06172839506172839,0,0,0.06172839506172839,30.864197530864196,0)" xlink:href="#bg"/></g><path d="M16-82v-28h88v28H16" id="bV"/><use transform="matrix(0.06172839506172839,0,0,0.06172839506172839,0,0)" xlink:href="#bV" id="aA"/><g id="aB"><use transform="matrix(0.06172839506172839,0,0,0.06172839506172839,0,0)" xlink:href="#bf"/><use transform="matrix(0.06172839506172839,0,0,0.06172839506172839,4.876543209876543,0)" xlink:href="#bd"/><use transform="matrix(0.06172839506172839,0,0,0.06172839506172839,17.22222222222222,0)" xlink:href="#aY"/><use transform="matrix(0.06172839506172839,0,0,0.06172839506172839,28.333333333333332,0)" xlink:href="#bg"/><use transform="matrix(0.06172839506172839,0,0,0.06172839506172839,40.67901234567901,0)" xlink:href="#aZ"/><use transform="matrix(0.06172839506172839,0,0,0.06172839506172839,46.851851851851855,0)" xlink:href="#bc"/><use transform="matrix(0.06172839506172839,0,0,0.06172839506172839,51.7283950617284,0)" xlink:href="#bd"/><use transform="matrix(0.06172839506172839,0,0,0.06172839506172839,64.07407407407408,0)" xlink:href="#be"/></g><path d="M230 0l2-204L168 0h-37L68-204 70 0H24v-248h70l56 185 57-185h69V0h-46" id="bW"/><path d="M135-194c53 0 70 44 70 98 0 56-19 98-73 100-31 1-45-17-59-34 3 33 2 69 2 105H25l-1-265h48c2 10 0 23 3 31 11-24 29-35 60-35zM114-30c33 0 39-31 40-66 0-38-9-64-40-64-56 0-55 130 0 130" id="bX"/><g id="aC"><use transform="matrix(0.06172839506172839,0,0,0.06172839506172839,0,0)" xlink:href="#bW"/><use transform="matrix(0.06172839506172839,0,0,0.06172839506172839,18.456790123456788,0)" xlink:href="#aN"/><use transform="matrix(0.06172839506172839,0,0,0.06172839506172839,30.80246913580247,0)" xlink:href="#bX"/><use transform="matrix(0.06172839506172839,0,0,0.06172839506172839,44.32098765432099,0)" xlink:href="#aJ"/></g><g id="aD"><use transform="matrix(0.06172839506172839,0,0,0.06172839506172839,0,0)" xlink:href="#aT"/><use transform="matrix(0.06172839506172839,0,0,0.06172839506172839,12.345679012345679,0)" xlink:href="#bg"/><use transform="matrix(0.06172839506172839,0,0,0.06172839506172839,24.691358024691358,0)" xlink:href="#aZ"/><use transform="matrix(0.06172839506172839,0,0,0.06172839506172839,30.864197530864196,0)" xlink:href="#bg"/></g><g id="aE"><use transform="matrix(0.06172839506172839,0,0,0.06172839506172839,0,0)" xlink:href="#bb"/><use transform="matrix(0.06172839506172839,0,0,0.06172839506172839,18.456790123456788,0)" xlink:href="#bg"/><use transform="matrix(0.06172839506172839,0,0,0.06172839506172839,30.80246913580247,0)" xlink:href="#ba"/></g></defs></g></svg>